<?xml version="1.0" encoding="UTF-8"?><svg id="Ebene_1" xmlns="http://www.w3.org/2000/svg" width="600" height="400" viewBox="0 0 600 400"><defs><style>.cls-1{fill:#009c4d;}.cls-2{fill:#54565b;}</style></defs><path class="cls-2" d="M160.82,209.18c0,17.98-14.53,32.51-32.51,32.51s-32.51-14.53-32.51-32.51,14.53-32.51,32.51-32.51,32.51,14.53,32.51,32.51m28.08,47.89s2.14-2.45-.31-4.59l-13.54-11.78c6.12-9.03,9.64-19.81,9.64-31.52,0-31.14-25.24-56.3-56.3-56.3s-56.38,25.17-56.38,56.3,25.24,56.3,56.3,56.3c11.4,0,21.96-3.44,30.83-9.18l14.84,12.93s2.45,2.14,4.59-.31l10.33-11.86Zm38.11,4.93v-105.16c0-3.84-3.89-3.84-3.89-3.84h-17.21c-3.89,0-3.89,3.84-3.89,3.84v105.32c0,3.84,3.89,3.84,3.89,3.84h17.21c3.89,.08,3.89-3.84,3.89-3.84m42-95.16v-10.37s0-3.63-3.74-3.63h-16.52s-3.74,0-3.74,3.63v10.74s0,3.63,3.74,3.63h16.52c0,.08,3.74,.08,3.74-3.63m0,93.63v-75.19c0-3.81-3.8-3.81-3.8-3.81h-16.41c-3.8,0-3.8,3.81-3.8,3.81v75.39c0,3.81,3.8,3.81,3.8,3.81h16.41c3.8,.08,3.8-3.81,3.8-3.81m70.75-46.31c-1.98-3.28,.69-6.03,.69-6.03l23.27-24.11c2.67-2.75-1.14-2.75-1.14-2.75h-22.2c-3.78,0-6.42,2.72-6.42,2.72l-21.37,22.66c-2.57,2.72-2.57-1.06-2.57-1.06v-49.54c0-3.78-3.78-3.78-3.78-3.78h-16.53c-3.69,0-3.69,3.69-3.69,3.69v105.47c0,3.84,3.85,3.84,3.85,3.84h16.46c3.69,0,3.69-3.69,3.69-3.69v-19.44c0-3.81,2.82-6.41,2.82-6.41l7.7-7.25,19.38,32.5c1.98,3.28,5.8,3.28,5.8,3.28h20.52c3.81,0,1.83-3.28,1.83-3.28l-28.3-46.84Z"/><path class="cls-1" d="M494.82,208.64c0,21.96-17.75,39.7-39.7,39.7s-39.7-17.82-39.7-39.7,17.75-39.7,39.7-39.7c21.88-.08,39.7,17.75,39.7,39.7m33.05,49.65l-18.13-15.15c6.27-9.94,9.94-21.8,9.94-34.5,0-35.73-28.92-64.64-64.64-64.64s-64.64,28.92-64.64,64.64,28.92,64.64,64.64,64.64c13.85,0,26.7-4.36,37.18-11.78l19.28,16.22s2.91,2.37,5.28-.46l11.48-13.69c.08,0,2.45-2.91-.38-5.28"/><path class="cls-2" d="M429.56,208.64c0-14.08,11.4-25.47,25.47-25.47s25.47,11.4,25.47,25.47-11.4,25.47-25.47,25.47c-14-.08-25.47-11.47-25.47-25.47"/></svg>