<?xml version="1.0" standalone="no"?>
<!DOCTYPE svg PUBLIC "-//W3C//DTD SVG 20010904//EN"
 "http://www.w3.org/TR/2001/REC-SVG-20010904/DTD/svg10.dtd">
<svg version="1.0" xmlns="http://www.w3.org/2000/svg"
 width="1724.000000pt" height="1724.000000pt" viewBox="0 0 1724.000000 1724.000000"
 preserveAspectRatio="xMidYMid meet">

<g transform="translate(0.000000,1724.000000) scale(0.100000,-0.100000)"
fill="#000000" stroke="none">
<path d="M14398 14864 c-19 -19 -264 -35 -588 -39 -322 -3 -1166 -15 -1215
-17 -11 0 -144 0 -296 2 -176 1 -283 -2 -296 -8 -12 -7 -190 -13 -468 -16
-248 -4 -521 -11 -607 -17 -86 -6 -199 -9 -250 -7 -51 3 -138 1 -193 -3 -110
-9 -339 -16 -750 -24 -148 -3 -378 -8 -510 -11 -132 -3 -427 -7 -655 -9 -480
-3 -1345 -22 -2040 -45 -303 -10 -1085 -30 -1375 -35 -193 -4 -581 -14 -941
-25 -166 -5 -406 -10 -535 -11 -129 -1 -308 -5 -399 -9 -91 -5 -326 -11 -524
-15 -197 -3 -364 -9 -371 -11 -17 -7 -177 -180 -335 -364 -137 -160 -370 -465
-479 -627 -57 -86 -62 -98 -67 -160 -7 -93 -6 -425 1 -493 3 -30 5 -82 4 -115
-1 -33 -2 -69 -2 -80 -1 -11 -5 -23 -10 -26 -5 -4 -4 -22 2 -44 8 -30 7 -40
-4 -52 -19 -19 -19 -32 2 -55 12 -14 14 -21 6 -26 -8 -5 -10 -28 -8 -62 2 -30
4 -59 4 -65 1 -5 -2 -84 -5 -175 -9 -277 -9 -372 -1 -377 5 -3 6 -46 3 -97 -3
-50 -6 -125 -5 -166 0 -79 0 -94 -4 -255 -2 -94 -3 -99 -25 -105 -13 -3 -24
-9 -24 -15 -2 -16 -25 -35 -43 -35 -9 0 -23 -7 -31 -15 -9 -8 -24 -15 -35 -15
-18 0 -18 -2 -5 -22 8 -13 15 -27 14 -33 0 -5 9 -14 21 -20 11 -5 21 -13 21
-17 0 -5 10 -8 23 -8 30 0 75 -32 69 -49 -3 -8 3 -20 12 -26 15 -12 15 -13 0
-19 -9 -3 -14 -13 -11 -20 3 -8 2 -16 -3 -18 -6 -2 -4 -14 3 -28 8 -17 11 -67
10 -155 -2 -71 -4 -258 -6 -415 -1 -157 -6 -290 -10 -297 -4 -6 -3 -22 2 -36
5 -13 6 -40 2 -59 -5 -21 -4 -43 2 -53 6 -12 6 -20 -3 -25 -9 -6 -10 -16 -3
-36 5 -16 7 -81 5 -144 -3 -103 -3 -168 -1 -275 0 -19 0 -73 0 -120 0 -47 0
-95 0 -107 0 -13 -1 -76 -2 -141 -1 -78 3 -122 11 -132 6 -8 9 -19 5 -24 -10
-18 -16 -73 -14 -136 1 -33 3 -91 4 -130 0 -38 6 -80 13 -92 8 -15 9 -24 2
-28 -6 -4 -10 -12 -9 -18 1 -7 0 -19 -4 -27 -13 -35 -14 -58 -2 -80 9 -16 10
-33 4 -54 -12 -41 -11 -93 1 -101 15 -9 13 -48 -2 -40 -7 4 -5 0 6 -9 13 -10
16 -21 11 -33 -4 -10 -12 -38 -16 -63 -5 -25 -10 -49 -12 -55 -14 -45 -21 -56
-43 -61 -13 -3 -21 -11 -17 -17 3 -5 1 -7 -5 -4 -5 4 -17 4 -26 1 -14 -5 -14
-8 -1 -21 13 -13 20 -34 16 -55 0 -5 11 -8 25 -8 17 0 28 -6 31 -20 3 -11 11
-20 17 -20 27 0 42 -53 35 -125 -3 -38 -3 -72 1 -75 4 -3 8 -32 9 -64 1 -32 4
-63 8 -69 3 -5 0 -13 -8 -17 -10 -7 -10 -14 -2 -32 6 -14 8 -77 6 -158 -4
-125 -5 -448 -3 -653 1 -48 -2 -92 -5 -97 -3 -6 -2 -10 4 -10 16 0 25 -48 12
-63 -13 -17 -15 -52 -5 -147 4 -41 7 -82 6 -90 -1 -8 -4 -104 -5 -213 -2 -110
-8 -202 -13 -205 -12 -9 -15 -192 -4 -192 10 0 7 -91 -4 -108 -3 -5 1 -12 9
-16 11 -4 13 -11 6 -28 -4 -13 -6 -45 -4 -71 2 -26 -1 -55 -6 -64 -5 -10 -5
-26 0 -40 5 -14 5 -23 -1 -23 -6 0 -9 -16 -6 -37 2 -22 -2 -50 -11 -66 -13
-26 -13 -31 1 -46 20 -22 20 -45 1 -61 -10 -9 -12 -16 -5 -25 6 -8 6 -15 -2
-23 -9 -9 -9 -12 1 -12 9 0 12 -14 9 -47 -1 -27 1 -54 5 -61 5 -7 4 -19 -3
-27 -7 -8 -9 -15 -5 -15 4 0 3 -6 -2 -12 -6 -7 -9 -21 -8 -31 4 -21 -16 -32
-75 -42 -25 -4 -50 -12 -57 -17 -6 -5 -20 -8 -30 -7 -10 2 -36 -3 -58 -11 -39
-13 -45 -15 -72 -18 -23 -3 -8 -47 18 -54 13 -3 49 -13 79 -22 30 -8 75 -18
100 -22 25 -3 55 -12 67 -20 12 -8 30 -14 40 -15 11 0 13 -3 6 -6 -19 -7 -16
-33 5 -33 10 0 13 -3 6 -8 -10 -7 -34 -65 -34 -83 0 -5 7 -9 16 -9 12 0 14 -4
6 -12 -10 -13 -5 -78 7 -78 8 0 10 -34 9 -130 -1 -41 -1 -117 0 -167 0 -59 -3
-93 -10 -93 -7 0 -6 -5 1 -14 8 -10 10 -34 6 -73 l-7 -59 68 -99 c85 -126 256
-355 284 -380 l20 -18 0 144 c0 162 12 203 64 228 28 13 216 34 301 33 22 0
193 0 380 -1 333 0 340 0 362 21 13 12 23 26 24 32 0 6 36 56 79 111 44 55 93
127 110 161 17 33 43 67 58 76 39 24 112 99 125 128 6 14 13 84 16 156 l6 132
40 58 40 58 2 150 c6 375 7 393 28 416 15 17 28 21 55 17 19 -2 49 0 67 4 22
4 36 3 43 -6 7 -8 10 -71 8 -173 -3 -158 -3 -161 21 -186 14 -15 35 -26 51
-26 33 0 127 46 139 68 5 10 12 193 15 407 6 440 5 418 17 466 5 19 11 80 13
135 6 115 7 127 25 148 12 14 11 16 -8 16 -25 0 -25 3 -9 47 10 29 10 36 -2
44 -13 7 -13 10 -1 18 9 6 10 11 2 15 -6 4 -11 12 -11 18 0 6 3 8 7 5 3 -4 12
-2 20 4 7 6 13 8 13 3 0 -10 20 17 20 28 0 4 -8 4 -17 1 -17 -7 -17 -6 0 11 9
9 18 25 18 34 1 9 3 31 5 47 3 17 5 52 7 78 2 56 7 59 102 89 58 18 78 30 116
71 31 33 52 48 62 44 21 -8 31 -130 23 -276 -5 -76 -2 -177 8 -291 8 -96 16
-202 17 -235 1 -33 5 -89 9 -125 13 -101 19 -189 26 -405 4 -110 10 -210 15
-222 18 -49 35 -48 272 11 143 35 272 61 362 71 77 9 149 18 160 20 11 3 66 9
122 15 129 12 204 27 478 96 262 66 317 85 540 179 94 40 222 92 285 115 117
44 176 75 185 98 2 7 5 142 6 300 2 465 17 812 38 929 5 25 6 53 4 64 -3 10 2
37 11 59 9 22 16 52 16 66 0 13 6 27 14 30 8 3 20 25 27 49 12 41 15 43 43 39
24 -4 28 -3 16 5 -13 9 -13 11 0 11 9 0 21 -5 28 -12 9 -9 12 -6 12 15 0 17 5
27 15 27 8 0 15 6 15 13 0 32 26 67 50 68 l25 1 -26 9 c-19 7 -29 20 -33 41
-3 17 -4 33 -1 36 3 3 5 0 5 -6 0 -7 4 -12 9 -12 5 0 7 9 4 21 -4 12 0 25 8
31 11 7 9 9 -6 6 -11 -2 -28 4 -38 14 -9 10 -13 18 -8 18 6 0 13 -4 16 -10 14
-23 34 -8 40 30 9 52 25 52 25 0 l0 -39 45 1 c40 0 45 3 45 24 0 47 20 72 64
79 36 6 69 18 128 46 10 5 24 9 32 9 8 0 16 6 19 14 3 7 28 16 57 20 50 7 54
6 81 -25 25 -29 49 -83 49 -114 0 -6 8 -26 19 -45 14 -27 17 -49 13 -92 -4
-54 -7 -59 -50 -93 -25 -19 -49 -35 -53 -35 -4 0 -18 -17 -31 -37 -22 -36 -23
-46 -22 -210 2 -206 6 -234 44 -273 16 -17 31 -30 34 -30 2 0 19 26 36 57 18
32 43 72 56 90 17 23 27 54 33 103 11 87 21 101 22 34 8 -289 5 -399 -11 -389
-4 2 -10 19 -14 37 -10 50 -27 14 -20 -42 15 -126 58 -245 154 -430 80 -155
98 -189 125 -235 16 -27 47 -76 70 -108 22 -31 58 -87 80 -123 22 -36 61 -92
88 -124 26 -32 57 -80 68 -105 22 -49 77 -127 165 -232 61 -71 67 -81 110
-187 29 -71 43 -89 157 -205 69 -70 129 -139 134 -156 7 -21 19 -32 41 -39 18
-5 32 -14 32 -21 0 -7 14 -27 31 -45 23 -23 74 -50 178 -93 92 -38 178 -82
234 -120 48 -32 87 -60 87 -61 0 -2 9 -38 21 -82 15 -56 21 -116 23 -207 2
-129 4 -135 41 -151 6 -3 4 -9 -5 -15 -8 -5 -19 -7 -25 -3 -5 3 -5 -1 2 -9 6
-8 14 -32 18 -54 8 -41 34 -115 41 -115 2 0 50 35 107 78 56 42 120 88 142
101 51 31 110 86 139 131 13 20 57 72 98 115 88 95 128 148 128 169 0 8 10 21
23 27 12 7 26 19 31 27 23 39 147 196 212 268 100 111 130 181 159 366 3 21
11 40 17 44 8 5 9 0 4 -17 -16 -52 -18 -69 -7 -69 18 0 63 80 66 119 2 20 11
60 19 90 18 63 13 78 -20 57 -13 -9 -25 -16 -28 -16 -11 0 16 59 35 76 10 9
19 22 19 28 0 6 11 23 25 38 19 21 25 38 25 70 0 24 1 75 4 113 2 39 7 122 11
185 3 63 10 131 15 150 25 95 -7 574 -33 500 -3 -8 -9 -33 -13 -55 l-7 -40 -9
35 c-6 19 -13 37 -17 40 -5 3 -13 15 -20 27 -10 20 -10 58 3 230 1 18 10 41
20 52 14 15 15 23 6 40 -7 14 -7 21 0 21 19 0 10 29 -12 36 l-23 7 22 8 c14 5
26 22 32 45 9 31 8 39 -7 50 -16 11 -16 14 2 33 13 14 15 21 6 21 -10 0 -9 5
3 18 10 10 17 33 17 50 0 18 9 55 20 83 11 30 17 63 13 79 -3 17 1 37 12 53
11 17 15 36 11 54 -6 29 24 93 43 93 15 0 24 -65 13 -87 -9 -16 -20 -65 -39
-173 -2 -14 -11 -81 -18 -150 -8 -69 -19 -155 -25 -192 -16 -104 -13 -155 9
-170 27 -20 94 -133 125 -215 20 -52 31 -70 42 -66 8 3 14 11 14 18 0 7 6 15
13 18 13 4 15 168 4 317 -3 41 -9 127 -12 190 -8 167 -24 309 -39 355 -31 95
-37 122 -33 158 2 22 8 42 13 45 5 4 10 36 10 72 1 44 11 93 31 150 17 47 36
109 43 138 8 34 24 65 45 87 l32 35 99 1 c55 1 128 3 164 4 36 1 391 5 790 8
399 4 820 9 935 12 217 6 329 8 990 25 516 13 898 28 921 36 50 18 64 50 43
97 -19 43 -48 48 -228 43 -91 -3 -274 -8 -406 -11 -406 -10 -627 -17 -1085
-35 -379 -15 -522 -20 -760 -25 -124 -3 -333 -10 -465 -16 -132 -5 -271 -9
-310 -9 -38 0 -192 -2 -340 -6 -351 -9 -356 -7 -341 145 9 96 16 135 27 146 6
6 26 4 57 -4 91 -26 126 -30 170 -19 25 6 46 18 49 27 2 9 9 24 14 33 5 10 9
28 9 40 0 12 8 30 17 40 18 20 20 68 4 103 -6 11 -19 41 -30 68 -19 46 -33 57
-46 37 -14 -23 -125 1 -125 26 0 17 56 59 94 71 22 7 30 17 33 38 8 55 20 67
63 60 60 -10 75 4 103 97 26 86 29 159 8 166 -14 5 -35 51 -32 70 1 8 -7 16
-19 19 -15 4 -19 11 -15 24 5 14 0 22 -20 29 -33 12 -45 13 -25 0 23 -14 9
-18 -40 -11 -29 4 -46 11 -48 22 -3 18 35 63 61 73 15 5 17 12 12 35 -7 34 9
71 30 71 18 0 19 12 3 28 -9 9 -10 15 -2 20 6 4 13 15 17 25 3 9 10 17 14 17
15 0 72 -136 83 -200 6 -36 21 -96 32 -135 21 -71 24 -106 15 -228 -3 -37 -1
-70 5 -73 14 -9 38 16 38 41 0 12 10 27 23 34 24 13 30 25 67 150 19 62 21 86
15 145 -4 39 -9 98 -11 131 -4 76 -21 188 -37 239 -16 51 -56 81 -111 81 l-42
0 24 22 c35 32 57 36 92 18 39 -20 58 -8 52 34 -2 16 3 39 11 52 15 24 49 129
52 161 1 10 9 26 19 37 14 15 17 30 13 58 -6 40 11 121 30 144 6 8 14 37 18
64 4 28 16 77 26 109 10 33 19 71 19 86 0 14 13 44 29 66 28 38 57 119 63 178
2 17 14 37 29 48 25 19 47 19 625 17 797 -3 1364 0 1849 9 l400 7 0 25 c0 24
-2 25 -75 28 -41 1 -196 9 -345 17 -520 30 -934 42 -1804 55 -311 5 -582 13
-601 17 l-35 9 1 94 c1 52 5 113 11 136 7 27 6 83 -3 175 -8 88 -9 138 -2 146
6 8 6 18 0 30 -6 11 -7 25 -2 34 7 11 0 20 -26 34 -38 20 -40 28 -19 78 20 48
19 55 -7 59 -32 4 -52 47 -33 69 8 8 15 23 15 31 0 9 7 18 15 22 17 6 21 71 6
81 -5 3 -12 18 -16 33 -3 15 -14 38 -24 52 -17 22 -22 23 -46 12 l-28 -13 7
41 c6 36 4 40 -15 40 -15 0 -19 4 -15 16 10 26 -3 35 -29 18 -22 -14 -24 -14
-39 8 -18 25 -22 68 -6 68 6 0 10 9 10 20 0 23 -18 26 -34 6 -9 -13 -15 -11
-40 9 l-29 23 32 16 c17 9 31 18 31 21 0 2 -9 19 -21 39 -14 23 -19 49 -18 80
2 26 -4 59 -13 78 -30 61 -49 108 -64 159 -8 27 -28 72 -44 99 -16 28 -27 50
-24 50 4 0 2 6 -3 13 -6 6 -10 20 -10 29 0 23 78 46 178 53 41 3 88 10 106 16
21 7 38 7 51 0 11 -6 24 -6 33 0 7 5 26 9 42 9 15 0 27 4 27 9 0 5 21 11 48
15 26 3 65 13 87 21 22 8 64 14 94 15 30 0 70 5 88 12 25 9 36 9 44 1 9 -9 24
-5 60 13 33 18 57 24 76 20 15 -3 54 0 85 8 32 7 62 9 70 5 18 -12 40 -11 33
1 -4 6 6 10 24 10 16 0 31 -4 33 -10 4 -11 54 -14 84 -5 12 4 25 1 32 -8 9
-11 23 -12 67 -4 52 10 57 9 71 -11 17 -25 36 -30 28 -7 -5 11 1 15 20 15 14
0 26 -6 26 -12 0 -10 3 -9 9 1 6 9 23 12 55 10 43 -4 61 4 34 14 -10 4 -10 7
0 18 9 10 19 11 41 2 22 -8 33 -8 41 1 9 8 14 8 17 -1 3 -7 15 -13 27 -13 12
0 27 -5 34 -12 9 -9 13 -7 18 5 9 24 19 21 54 -13 18 -17 45 -33 61 -37 16 -3
32 -10 35 -14 9 -15 21 -10 27 12 8 31 27 13 27 -27 0 -28 4 -34 21 -34 16 0
19 4 14 19 -5 18 -1 20 46 19 42 0 52 -3 56 -19 3 -10 9 -19 14 -19 5 0 6 -7
3 -14 -4 -10 6 -20 30 -30 20 -8 36 -20 36 -25 0 -15 27 -14 32 1 6 16 38 2
38 -17 0 -8 -4 -15 -10 -15 -16 0 -12 -22 8 -36 22 -17 49 -18 55 -1 3 9 10 7
23 -5 14 -14 15 -18 4 -18 -13 0 -13 -2 0 -10 23 -15 43 -12 37 4 -4 10 -1 13
7 10 17 -7 8 -54 -10 -54 -9 0 -13 -8 -10 -22 2 -16 12 -25 32 -28 23 -4 29
-11 29 -30 0 -19 5 -24 19 -22 10 2 22 -2 26 -8 10 -17 91 -33 103 -21 7 7 19
4 38 -10 24 -17 39 -19 119 -14 74 5 100 2 131 -12 21 -9 39 -20 39 -24 0 -13
76 -37 126 -40 50 -2 105 9 181 37 37 13 44 22 62 68 18 48 19 75 17 346 -2
162 -6 304 -11 315 -34 91 -63 112 -137 100 -24 -4 -78 -8 -120 -8 -43 -1 -78
-5 -78 -9 0 -12 -39 -10 -77 4 -49 18 -42 57 10 49 4 0 7 3 7 8 0 4 30 11 67
15 37 4 72 11 78 16 6 5 35 11 65 14 81 7 116 21 148 56 34 36 51 108 47 190
-1 30 -6 161 -10 290 -3 129 -10 269 -15 310 -4 41 -8 143 -9 225 l-1 150
-118 116 -119 116 -69 7 c-38 4 -76 9 -85 12 -8 2 -18 2 -21 -2z m-6893 -1255
c28 -8 62 -10 258 -12 31 0 57 -5 57 -9 0 -5 19 -6 43 -4 24 3 65 -1 97 -10
30 -9 72 -19 93 -21 51 -7 53 -17 12 -42 -23 -13 -35 -27 -33 -38 2 -12 -13
-26 -48 -44 -64 -35 -113 -83 -121 -120 -7 -34 -18 -37 -34 -8 -8 16 -8 23 1
29 15 9 10 42 -7 48 -8 2 -13 -5 -13 -18 0 -15 -5 -20 -14 -17 -8 3 -20 0 -26
-8 -8 -10 -25 -12 -59 -8 -36 4 -51 1 -63 -11 -9 -9 -25 -16 -35 -16 -28 0
-40 -12 -47 -47 -4 -17 -13 -37 -21 -43 -8 -6 -17 -24 -20 -40 -6 -27 -45 -73
-45 -53 0 6 -7 13 -15 17 -24 9 -55 -29 -55 -68 0 -18 -6 -39 -14 -46 -8 -6
-12 -18 -9 -26 4 -11 -5 -14 -41 -14 -44 0 -45 1 -34 20 7 11 18 20 25 20 7 0
13 9 13 20 0 14 -7 20 -22 20 -29 -1 -62 -25 -53 -40 4 -6 -1 -17 -11 -25 -20
-14 -23 -69 -9 -132 5 -22 4 -33 -4 -33 -6 0 -11 10 -11 23 0 13 -3 27 -7 31
-8 8 -43 -60 -43 -86 0 -19 -25 -25 -35 -8 -4 6 3 31 15 56 13 27 19 49 14 54
-15 15 -54 0 -54 -20 0 -10 -7 -21 -16 -24 -12 -4 -14 -14 -9 -36 7 -33 -4
-39 -29 -15 -9 10 -17 11 -21 5 -3 -6 1 -17 9 -26 9 -8 16 -24 16 -35 0 -10 6
-19 13 -19 24 -1 -39 -40 -64 -40 -15 0 -31 -6 -37 -12 -16 -21 -54 -139 -61
-193 -6 -47 -8 -50 -36 -50 -28 0 -29 -1 -26 -46 3 -53 -8 -66 -59 -71 -30 -2
-36 -8 -45 -35 -11 -39 -29 -42 -51 -8 -25 39 -41 31 -46 -21 -3 -46 5 -67 16
-39 10 27 26 15 26 -20 0 -34 -12 -46 -25 -25 -3 6 -15 10 -26 10 -12 0 -19 7
-19 19 0 14 -8 21 -27 23 -43 5 -40 36 9 99 24 30 52 72 63 92 11 20 23 37 27
37 16 0 28 85 33 226 7 235 20 385 39 428 9 21 16 47 16 57 0 11 4 19 9 19 10
0 24 38 22 57 -1 7 8 23 19 35 11 13 24 34 27 48 4 14 27 45 52 68 58 55 167
132 187 132 8 0 17 6 20 14 3 8 14 16 25 19 11 3 19 14 19 25 0 26 24 45 49
37 10 -3 22 -1 26 5 7 12 204 4 250 -11z m1287 -3 c15 -10 42 -15 69 -14 137
7 224 -15 97 -25 -89 -7 -119 -16 -151 -46 -27 -25 -29 -25 -42 -7 -9 11 -18
15 -27 10 -11 -7 -78 -20 -218 -40 -34 -5 -33 -4 15 20 63 31 112 81 89 90 -8
3 -32 -3 -52 -14 -20 -10 -44 -21 -52 -23 -9 -3 -22 -17 -30 -33 -25 -49 -48
-70 -62 -56 -7 7 -22 12 -35 12 -13 0 -23 5 -23 10 0 6 10 10 23 10 33 1 75
36 60 51 -9 9 -30 3 -90 -26 -43 -21 -85 -44 -93 -51 -17 -14 -63 -8 -58 8 6
17 130 74 236 109 95 31 114 34 212 33 80 -1 114 -6 132 -18z m424 -11 c-1
-28 -5 -35 -21 -35 -65 1 -55 62 11 69 6 0 10 -15 10 -34z m979 -15 c4 -6 23
-18 43 -27 49 -21 19 -29 -31 -8 -40 16 -77 48 -77 65 0 12 55 -14 65 -30z
m-1068 8 c22 -21 32 -68 15 -68 -9 0 -82 75 -82 85 0 14 46 3 67 -17z m718 10
c29 -13 30 -16 9 -43 -14 -19 -15 -19 -39 9 -35 41 -21 58 30 34z m-3255 -6
c0 -10 -66 -9 -76 1 -4 4 11 7 34 7 23 0 42 -4 42 -8z m-92 -14 c-6 -18 -28
-21 -28 -4 0 9 7 16 16 16 9 0 14 -5 12 -12z m-38 -28 c0 -35 1 -34 -35 -16
-15 8 -22 17 -16 21 6 3 16 3 21 0 6 -3 10 1 10 9 0 9 5 16 10 16 6 0 10 -13
10 -30z m2989 6 c13 -7 20 -15 15 -18 -14 -8 -75 12 -69 22 8 13 25 12 54 -4z
m-2934 -23 c-24 -17 -45 -17 -45 1 0 8 10 16 23 18 32 6 43 -3 22 -19z m52 11
c-3 -3 -12 -4 -19 -1 -8 3 -5 6 6 6 11 1 17 -2 13 -5z m2963 -14 c12 -8 12
-10 -5 -10 -11 0 -27 5 -35 10 -12 8 -12 10 5 10 11 0 27 -5 35 -10z m-3112
-11 c14 0 13 -2 -3 -9 -31 -13 -45 -11 -45 6 0 11 5 14 16 10 9 -3 23 -6 32
-7z m125 -6 c-7 -2 -19 -2 -25 0 -7 3 -2 5 12 5 14 0 19 -2 13 -5z m3037 3 c0
-11 -19 -15 -25 -6 -3 5 1 10 9 10 9 0 16 -2 16 -4z m517 -2 c-3 -3 -12 -4
-19 -1 -8 3 -5 6 6 6 11 1 17 -2 13 -5z m-3591 -14 c17 -7 24 -14 18 -20 -12
-12 -87 7 -79 21 8 12 27 12 61 -1z m3409 -20 c3 -5 1 -10 -4 -10 -6 0 -11 5
-11 10 0 6 2 10 4 10 3 0 8 -4 11 -10z m-265 -20 c0 -5 -2 -10 -4 -10 -3 0 -8
5 -11 10 -3 6 -1 10 4 10 6 0 11 -4 11 -10z m190 0 c0 -5 -6 -10 -14 -10 -8 0
-18 5 -21 10 -3 6 3 10 14 10 12 0 21 -4 21 -10z m-3568 -35 c-5 -26 -26 -33
-38 -13 -4 6 1 17 11 25 27 19 33 16 27 -12z m3668 15 c0 -5 -4 -10 -10 -10
-5 0 -10 5 -10 10 0 6 5 10 10 10 6 0 10 -4 10 -10z m-3750 -20 c0 -11 -4 -20
-10 -20 -5 0 -10 9 -10 20 0 11 5 20 10 20 6 0 10 -9 10 -20z m1926 -14 c-14
-19 -26 -46 -26 -61 0 -17 -7 -28 -22 -34 -55 -21 -50 21 9 81 55 56 77 63 39
14z m1772 12 c-7 -19 -38 -22 -38 -4 0 10 9 16 21 16 12 0 19 -5 17 -12z
m-3593 -49 c5 -6 1 -9 -11 -9 -17 0 -19 -5 -16 -37 3 -21 10 -41 16 -45 8 -6
7 -8 -1 -8 -20 0 -15 -18 6 -25 10 -3 21 -14 24 -25 4 -16 12 -18 43 -15 32 4
34 3 14 -4 -18 -6 -20 -9 -7 -10 13 -1 16 -7 11 -25 -7 -29 16 -38 101 -37 57
1 59 1 35 -13 l-25 -15 33 -7 c18 -4 35 -11 38 -15 9 -15 -27 -23 -48 -10 -12
8 -44 9 -98 5 -55 -5 -84 -3 -94 5 -15 13 -195 19 -214 7 -18 -11 -92 5 -92
20 0 10 -13 14 -38 14 -38 0 -102 24 -102 39 0 17 33 51 51 51 21 0 25 20 7
38 -8 8 -2 10 26 9 26 -2 43 -10 55 -25 l17 -23 19 20 c10 12 13 21 7 21 -7 0
-12 -4 -12 -10 0 -5 -4 -10 -10 -10 -5 0 -10 20 -10 44 0 47 -7 41 89 77 16 6
32 17 35 24 5 15 134 9 151 -6z m215 11 c0 -5 -4 -10 -10 -10 -5 0 -10 5 -10
10 0 6 5 10 10 10 6 0 10 -4 10 -10z m1690 -14 c0 -16 -18 -31 -27 -22 -8 8 5
36 17 36 5 0 10 -6 10 -14z m-1660 -6 c-8 -5 -22 -9 -30 -9 -10 0 -8 3 5 9 27
12 43 12 25 0z m-65 -30 c-3 -5 -10 -10 -16 -10 -5 0 -9 5 -9 10 0 6 7 10 16
10 8 0 12 -4 9 -10z m52 -6 c-3 -3 -12 -4 -19 -1 -8 3 -5 6 6 6 11 1 17 -2 13
-5z m-539 -32 c2 -7 -5 -12 -17 -12 -14 0 -19 5 -14 15 6 17 25 15 31 -3z
m372 -47 c0 -8 -3 -15 -6 -15 -3 0 -12 7 -20 15 -14 13 -13 15 5 15 12 0 21
-6 21 -15z m1347 -7 c-3 -8 -6 -5 -6 6 -1 11 2 17 5 13 3 -3 4 -12 1 -19z
m275 -1 c25 -19 27 -27 22 -60 l-7 -38 -22 21 c-12 11 -36 25 -53 30 -29 8
-33 6 -38 -16 -6 -23 -8 -24 -23 -10 -19 18 -41 5 -41 -23 0 -9 -8 -25 -16
-36 -15 -20 -16 -20 -37 6 -18 22 -25 25 -39 16 -13 -9 -21 -7 -36 6 -10 9
-24 17 -31 17 -6 0 0 15 15 34 25 31 29 33 40 18 12 -16 13 -16 19 1 4 10 18
17 34 18 14 0 53 9 86 19 81 24 95 24 127 -3z m-2104 -6 c11 -7 10 -10 -3 -15
-20 -7 -38 1 -30 15 7 11 16 11 33 0z m676 -7 c22 -8 20 -24 -3 -24 -10 0 -21
7 -25 15 -6 16 3 19 28 9z m-44 -26 c0 -10 -29 -9 -55 2 -15 6 -11 7 18 7 20
-1 37 -5 37 -9z m-55 -32 c19 -7 19 -8 2 -17 -21 -12 -57 -3 -57 16 0 15 22
26 30 15 3 -3 14 -10 25 -14z m143 -5 c3 -19 0 -22 -13 -17 -9 3 -21 6 -26 6
-5 0 -9 9 -9 21 0 31 44 22 48 -10z m1299 -33 c-3 -8 -6 -5 -6 6 -1 11 2 17 5
13 3 -3 4 -12 1 -19z m-1304 -28 c3 -13 0 -20 -9 -20 -8 0 -14 2 -14 4 0 2 -3
11 -6 20 -4 10 -1 16 9 16 8 0 17 -9 20 -20z m4417 -4 c0 -13 -7 -26 -15 -30
-8 -3 -15 -15 -15 -28 0 -20 -64 -98 -82 -98 -11 0 -67 63 -74 83 -4 12 -12
15 -30 11 -29 -7 -35 20 -7 31 16 6 15 8 -7 25 -18 14 -21 20 -9 20 9 0 24 -9
35 -21 15 -17 25 -19 54 -13 19 4 44 6 54 6 11 -1 26 8 33 18 8 11 25 20 39
20 19 0 24 -5 24 -24z m-3564 -23 c-11 -11 -19 6 -11 24 8 17 8 17 12 0 3 -10
2 -21 -1 -24z m432 10 c-4 -32 -38 -46 -38 -16 0 20 18 43 33 43 4 0 7 -12 5
-27z m-1395 -20 c-7 -2 -21 -2 -30 0 -10 3 -4 5 12 5 17 0 24 -2 18 -5z m1573
-21 c1 -7 0 -8 -3 -2 -2 5 -8 8 -13 5 -4 -3 -19 -1 -32 5 -21 9 -20 9 11 7 19
-1 36 -8 37 -15z m3008 3 c-4 -8 -10 -15 -15 -15 -5 0 -9 7 -9 15 0 8 7 15 15
15 9 0 12 -6 9 -15z m-3411 -45 c-7 -27 -33 -48 -33 -26 0 33 -38 16 -69 -31
-17 -25 -31 -50 -31 -55 0 -4 -4 -8 -10 -8 -20 0 -9 50 20 93 29 44 54 62 70
52 4 -3 14 2 21 11 12 14 14 14 25 -1 6 -9 10 -25 7 -35z m147 31 c0 -6 -5
-13 -11 -16 -6 -4 -8 -14 -5 -24 3 -9 -2 -6 -10 7 -9 12 -23 22 -30 22 -30 0
-12 15 21 17 19 2 35 -1 35 -6z m3350 -21 c0 -18 -42 -80 -51 -74 -12 7 -11
46 1 79 8 22 13 24 30 15 11 -6 20 -15 20 -20z m1920 -10 c0 -5 -4 -10 -10
-10 -5 0 -10 5 -10 10 0 6 5 10 10 10 6 0 10 -4 10 -10z m385 -30 c3 -5 -3
-10 -14 -10 -12 0 -21 5 -21 10 0 6 6 10 14 10 8 0 18 -4 21 -10z m-2385 -25
c0 -8 -9 -15 -20 -15 -13 0 -18 5 -14 15 4 8 12 15 20 15 8 0 14 -7 14 -15z
m-80 -57 c0 -36 -4 -35 -14 5 -4 16 -2 27 4 27 5 0 10 -14 10 -32z m2738 -20
c-6 -18 -28 -21 -28 -4 0 9 7 16 16 16 9 0 14 -5 12 -12z m-6389 -24 c14 -32
-4 -94 -29 -94 -23 0 -48 20 -32 27 7 3 12 23 12 49 0 36 3 44 18 44 11 0 24
-12 31 -26z m41 2 c0 -3 -4 -8 -10 -11 -5 -3 -10 -1 -10 4 0 6 5 11 10 11 6 0
10 -2 10 -4z m3635 -26 c3 -5 1 -10 -4 -10 -6 0 -11 5 -11 10 0 6 2 10 4 10 3
0 8 -4 11 -10z m299 -56 c13 -33 4 -42 -22 -26 -7 5 -10 16 -6 25 8 21 20 22
28 1z m2666 -14 c0 -5 -9 -10 -20 -10 -11 0 -20 5 -20 10 0 6 9 10 20 10 11 0
20 -4 20 -10z m20 -101 c0 -5 -7 -9 -15 -9 -15 0 -20 12 -9 23 8 8 24 -1 24
-14z m48 -37 c3 -19 -1 -23 -15 -20 -10 2 -19 14 -21 26 -3 19 1 23 15 20 10
-2 19 -14 21 -26z m-9963 -92 c-3 -5 -13 -10 -21 -10 -8 0 -14 5 -14 10 0 6 9
10 21 10 11 0 17 -4 14 -10z m25 -85 c0 -16 -17 -19 -44 -9 -22 9 -10 24 20
24 15 0 24 -6 24 -15z m-60 -25 c0 -5 18 -10 40 -10 22 0 40 5 40 10 0 19 17
10 28 -15 27 -58 31 -74 37 -150 4 -43 9 -83 12 -88 3 -5 6 -55 6 -111 0 -55
2 -105 4 -109 3 -5 6 -34 7 -65 2 -31 8 -163 14 -292 17 -355 24 -763 13 -792
-15 -39 -57 -48 -237 -48 -226 0 -208 -23 -211 280 -9 899 -9 1005 5 1070 7
36 16 84 19 108 5 40 26 58 35 30 3 -9 9 -8 21 4 14 14 14 17 2 22 -8 3 -21 3
-29 0 -8 -3 -16 3 -19 15 -6 26 9 37 28 21 8 -6 19 -9 25 -5 15 9 12 35 -4 35
-11 0 -12 7 -7 28 4 15 14 27 24 27 23 0 23 18 0 26 -11 4 -2 6 21 5 22 -1 41
-7 44 -14 6 -19 29 -14 35 8 5 20 47 29 47 10z m-198 -65 c0 -5 -5 -11 -11
-13 -6 -2 -11 4 -11 13 0 9 5 15 11 13 6 -2 11 -8 11 -13z m2733 -188 c-5 -33
-3 -46 9 -56 18 -15 22 -51 6 -51 -5 0 -10 6 -10 13 0 8 -9 22 -20 32 -25 22
-27 7 -7 -51 16 -47 8 -90 -16 -86 -21 4 -22 -21 -2 -52 14 -21 14 -23 -12
-35 -24 -11 -26 -14 -10 -22 9 -6 17 -19 17 -30 0 -16 -5 -19 -19 -14 -24 7
-41 -20 -41 -64 0 -33 -19 -41 -38 -18 -15 18 -10 53 16 110 17 39 19 53 10
70 -16 30 -12 66 12 112 11 21 20 47 20 57 0 9 4 27 9 40 5 13 12 35 15 50 3
14 14 29 24 31 41 11 43 9 37 -36z m-141 -578 c-13 -14 -13 -18 1 -29 8 -7 15
-26 15 -42 0 -23 -4 -29 -17 -26 -14 3 -17 12 -15 40 2 20 -1 39 -7 42 -10 7
-10 9 10 61 l12 30 8 -30 c6 -21 4 -34 -7 -46z m43 -345 c-3 -3 -12 -4 -19 -1
-8 3 -5 6 6 6 11 1 17 -2 13 -5z m3443 -318 c48 -1 55 -4 55 -21 0 -13 -8 -21
-23 -23 -16 -3 -22 -8 -18 -19 3 -8 6 -19 6 -25 0 -6 26 -7 70 -3 55 5 75 3
92 -9 27 -19 38 -20 38 -3 0 10 10 12 32 9 43 -6 93 -35 93 -53 0 -8 15 -18
33 -24 17 -5 32 -13 32 -17 0 -4 5 -8 11 -8 12 0 29 -17 45 -45 6 -11 17 -20
25 -21 34 -2 39 -5 39 -19 0 -8 -6 -15 -12 -15 -7 0 -3 -9 10 -18 18 -14 40
-18 89 -17 55 1 66 -2 75 -20 6 -11 20 -27 31 -36 11 -9 21 -25 22 -35 7 -55
20 -87 42 -101 13 -9 22 -21 20 -27 -3 -7 4 -23 16 -36 13 -16 21 -21 24 -12
9 25 39 8 95 -54 20 -23 35 -35 71 -58 20 -14 27 -26 27 -51 0 -27 4 -34 22
-37 18 -2 22 -11 24 -48 2 -24 9 -49 17 -55 25 -19 28 -49 39 -325 5 -151 13
-345 16 -430 6 -137 4 -168 -15 -265 -13 -60 -23 -127 -23 -148 0 -21 -5 -47
-10 -57 -6 -11 -11 -71 -13 -135 -1 -79 -6 -116 -14 -119 -8 -4 -11 -24 -8
-66 3 -48 1 -60 -9 -57 -8 3 -19 0 -25 -6 -18 -18 -45 21 -29 40 9 11 9 16 0
22 -6 3 -17 24 -24 46 -11 33 -18 41 -43 43 -38 5 -54 18 -48 41 7 26 -18 40
-73 43 -31 1 -59 9 -76 21 -24 17 -29 18 -44 6 -20 -16 -62 -13 -84 6 -8 7
-43 17 -77 21 -37 4 -60 11 -57 16 4 6 -2 7 -16 3 -14 -4 -20 -3 -17 2 8 13
-35 50 -81 70 -20 8 -49 22 -64 29 -15 8 -52 16 -83 19 -32 2 -67 12 -83 23
-15 10 -48 27 -74 37 -51 19 -63 35 -26 35 53 0 -23 23 -112 34 -20 3 -49 10
-65 16 -16 6 -31 8 -32 3 -12 -32 -21 -36 -53 -19 -42 20 -51 21 -22 0 12 -8
22 -19 22 -24 0 -5 15 -30 33 -56 27 -39 32 -54 32 -104 0 -34 -5 -64 -13 -72
-7 -7 -52 -15 -105 -19 -50 -3 -116 -14 -146 -23 -37 -12 -56 -14 -60 -7 -5 7
-18 8 -37 2 -34 -10 -66 0 -85 26 -32 43 -65 54 -133 45 -36 -5 -74 -4 -87 0
-15 6 -31 5 -45 -3 -12 -6 -27 -8 -33 -5 -16 10 -51 -3 -51 -19 0 -13 -21 -25
-44 -25 -7 0 -18 11 -24 25 -17 37 -69 65 -106 58 -17 -3 -34 -11 -38 -17 -5
-7 -17 -3 -37 12 -42 31 -83 28 -50 -5 7 -7 6 -12 -5 -16 -10 -4 -22 3 -32 19
-38 57 36 154 118 154 37 0 43 -6 39 -37 -3 -22 12 -15 64 28 45 37 58 49 46
42 -8 -5 -31 20 -31 34 0 10 6 12 19 8 11 -3 22 -1 26 5 4 7 18 9 32 5 45 -11
64 2 59 43 -2 20 1 46 7 59 8 18 7 27 -7 42 -16 18 -17 82 -1 122 4 10 0 19
-11 23 -15 6 -15 8 0 31 10 15 14 34 10 54 -4 17 -2 43 4 58 5 16 14 37 18 48
4 11 6 24 5 30 -1 5 4 14 12 20 12 9 13 20 5 63 -8 37 -8 60 0 75 6 12 13 36
16 52 10 61 24 116 30 122 4 4 20 -1 36 -11 17 -9 34 -15 38 -12 5 3 24 1 43
-4 29 -8 37 -17 52 -59 9 -27 17 -58 17 -69 0 -12 11 -32 24 -46 13 -15 31
-47 40 -73 10 -27 23 -59 30 -73 8 -14 18 -41 25 -60 6 -19 22 -48 36 -64 16
-18 23 -36 20 -47 -5 -14 1 -20 22 -25 15 -3 35 -8 45 -10 23 -7 32 13 29 67
l-2 46 57 2 c44 1 63 -4 78 -18 12 -10 33 -21 47 -24 14 -4 42 -18 62 -31 20
-14 51 -29 69 -35 18 -5 53 -17 76 -26 39 -14 66 -14 235 -4 106 7 206 11 223
10 20 0 34 5 38 14 3 10 19 15 45 15 36 0 40 3 54 39 10 24 33 51 60 71 33 23
43 37 40 51 -3 10 -9 19 -14 19 -5 0 -9 14 -9 30 0 23 5 30 19 30 11 0 26 -6
33 -13 16 -17 98 -29 98 -15 0 5 11 24 25 42 26 34 32 70 15 96 -6 10 -4 22 5
36 12 19 12 23 0 28 -8 3 -15 15 -15 26 0 11 -4 20 -10 20 -5 0 -10 13 -10 29
0 17 -4 33 -10 36 -5 3 -10 17 -10 30 0 15 -7 26 -20 30 -23 7 -20 37 6 65 12
12 19 12 47 1 56 -22 62 -20 63 24 0 22 3 50 8 62 30 89 -157 288 -359 384
-55 26 -70 29 -121 23 -33 -3 -62 -8 -66 -10 -3 -2 -26 2 -50 10 -43 15 -84 9
-126 -18 -8 -5 -23 -4 -35 1 -60 27 -85 30 -123 17 -28 -10 -47 -11 -67 -4
-18 6 -35 6 -48 0 -10 -6 -28 -14 -38 -20 -12 -6 -39 -6 -73 1 -29 5 -84 11
-121 14 -38 2 -78 7 -89 11 -17 5 -18 3 -9 -14 6 -11 7 -22 4 -26 -3 -3 0 -6
8 -6 12 0 12 -2 -1 -10 -8 -5 -19 -5 -25 -1 -18 14 -72 20 -83 9 -6 -6 -18 -7
-29 -3 -40 18 -93 15 -113 -5 -25 -25 -49 -26 -56 -2 -3 9 -9 24 -13 32 -12
22 3 163 17 168 7 2 12 16 12 32 0 35 22 44 61 25 l29 -16 -2 33 c-3 32 -2 33
35 30 34 -3 43 1 88 47 27 27 49 54 48 58 -4 21 2 33 16 33 8 0 15 -7 15 -15
0 -8 -5 -15 -12 -15 -8 0 -9 -3 -2 -10 6 -6 41 -10 80 -8 63 3 69 5 74 28 4
15 14 26 27 28 11 2 29 12 39 23 18 20 40 27 29 9 -3 -5 -1 -10 4 -10 6 0 11
7 11 15 0 8 9 15 20 15 14 0 20 7 20 21 0 16 4 19 18 13 9 -4 42 -8 72 -8z
m-1214 -351 c13 -20 14 -28 4 -40 -21 -25 -47 -19 -48 13 0 23 13 52 24 52 2
0 11 -11 20 -25z m414 17 c-1 -16 -50 -62 -74 -68 -31 -7 -36 12 -5 21 14 5
17 10 10 19 -7 8 -7 16 -1 22 11 11 70 16 70 6z m-4893 -25 c10 -10 23 -36 28
-59 15 -61 51 -83 128 -81 53 1 154 1 232 0 152 -2 1274 27 1314 34 30 5 120
9 200 9 80 0 220 5 309 10 125 8 167 8 178 -1 27 -22 72 -97 79 -130 4 -19 15
-50 25 -69 10 -20 23 -61 29 -92 5 -32 19 -74 30 -96 11 -21 24 -73 30 -116 6
-42 15 -86 21 -96 5 -10 10 -41 10 -69 0 -43 4 -53 25 -67 20 -13 25 -24 25
-59 0 -50 23 -110 45 -118 8 -4 15 -18 15 -32 0 -20 -5 -25 -23 -25 -29 0 -55
-27 -67 -70 -5 -17 -10 -138 -10 -269 -2 -273 3 -297 80 -426 26 -44 57 -98
68 -121 11 -22 28 -46 36 -53 13 -11 17 -10 21 5 18 57 53 95 103 109 25 7 30
-12 11 -48 -7 -11 -13 -60 -14 -108 -1 -79 -4 -91 -33 -134 -46 -70 -44 -155
4 -155 15 0 24 -6 24 -15 0 -18 -12 -19 -28 -3 -18 18 -15 -5 5 -40 37 -64
103 -78 193 -40 57 24 70 18 70 -33 0 -14 7 -48 15 -75 21 -69 19 -99 -9 -131
l-24 -28 -674 -3 c-1416 -5 -2495 -3 -2553 6 -36 6 -325 6 -725 1 -366 -4
-856 -9 -1090 -11 -474 -3 -470 -4 -503 63 -16 34 -17 105 -17 1180 0 629 4
1159 8 1178 4 19 19 43 34 54 25 19 50 21 270 28 134 5 330 9 436 9 106 0 322
5 480 12 158 6 380 12 494 12 l207 1 30 29 c23 22 31 39 31 65 1 78 24 86 234
86 155 0 177 -2 193 -18z m3484 -127 c14 0 -26 -36 -72 -65 -22 -15 -63 -49
-91 -76 -56 -55 -93 -68 -57 -20 11 16 32 35 45 42 13 7 24 17 24 23 0 19 60
76 81 76 11 0 22 7 26 16 3 8 12 13 20 10 8 -3 19 -6 24 -6z m-266 -250 c-10
-11 -20 -18 -23 -15 -7 6 18 35 31 35 5 0 2 -9 -8 -20z m-161 -260 c-7 -35 9
-41 28 -10 18 29 30 25 56 -20 25 -44 27 -51 11 -47 -23 5 -19 -20 6 -31 24
-11 25 -14 22 -104 -2 -52 -9 -104 -16 -117 -12 -21 -11 -30 7 -65 33 -66 50
-118 57 -168 3 -25 12 -48 19 -51 8 -3 11 -16 8 -36 -5 -39 18 -119 37 -126 8
-3 19 -1 25 5 12 12 56 13 72 2 6 -4 13 -15 17 -25 5 -13 13 -16 27 -12 38 12
156 7 203 -9 26 -9 56 -16 65 -16 10 0 24 -6 30 -12 7 -7 29 -17 50 -23 26 -8
38 -17 42 -35 5 -22 11 -25 46 -22 21 2 50 -1 64 -7 14 -5 19 -10 12 -10 -7
-1 -1 -12 14 -26 19 -17 22 -25 12 -25 -9 0 -18 -7 -22 -15 -8 -21 -53 -19
-65 2 -12 22 -23 12 -26 -22 -3 -24 -1 -25 31 -19 27 5 34 3 34 -10 0 -13 -11
-16 -59 -16 -54 0 -59 -2 -54 -20 4 -16 2 -19 -11 -14 -9 3 -16 9 -16 13 0 4
-11 13 -24 19 -31 14 -97 -5 -104 -30 -3 -13 -14 -18 -38 -18 -18 0 -36 -5
-39 -10 -5 -8 -11 -8 -20 0 -18 15 -64 2 -95 -27 -13 -12 -28 -23 -32 -23 -5
0 -8 -7 -8 -15 0 -8 -9 -19 -20 -25 -12 -6 -25 -22 -30 -36 -5 -13 -17 -24
-26 -24 -10 0 -14 -5 -10 -15 3 -8 -5 -25 -18 -37 -23 -22 -23 -26 -13 -90 8
-52 7 -71 -3 -82 -7 -9 -17 -13 -23 -9 -5 3 -2 -8 8 -25 17 -28 17 -31 1 -47
-13 -14 -19 -15 -31 -5 -8 7 -15 20 -15 30 0 10 -7 21 -16 24 -25 10 -26 2 -4
-27 11 -14 20 -30 20 -37 0 -6 5 -21 11 -32 6 -12 13 -42 14 -67 1 -25 8 -91
14 -146 21 -198 22 -223 11 -230 -6 -4 -13 -5 -15 -4 -2 2 -19 58 -38 124 -41
142 -67 328 -79 565 -1 15 -23 188 -52 410 -9 63 -20 192 -26 285 -17 272 -40
527 -50 570 -12 51 1 155 20 155 5 0 7 -13 4 -30z m2977 -16 c9 -11 23 -14 44
-11 30 5 32 3 27 -20 -5 -27 -13 -27 -82 -3 -83 30 -85 31 -69 41 22 14 65 11
80 -7z m69 -218 c0 -13 -7 -29 -15 -36 -17 -14 -20 -3 -9 38 8 29 24 28 24 -2z
m-2407 -86 c-6 -22 -33 -28 -33 -7 0 17 10 27 26 27 7 0 10 -8 7 -20z m2590
-137 c-13 -2 -33 -2 -45 0 -13 2 -3 4 22 4 25 0 35 -2 23 -4z m-3433 -299 c-6
-38 -20 -102 -32 -144 -11 -41 -24 -95 -29 -119 -10 -50 -19 -65 -19 -32 0 40
52 346 62 365 20 37 29 1 18 -70z m4160 -276 c0 -25 -3 -29 -10 -18 -13 20
-13 50 0 50 6 0 10 -15 10 -32z m-4192 -147 c21 -45 21 -81 2 -81 -5 0 -13 15
-19 33 -31 100 -20 131 17 48z m1777 -59 c-3 -3 -11 0 -18 7 -9 10 -8 11 6 5
10 -3 15 -9 12 -12z m185 -62 c0 -5 -8 -10 -17 -10 -15 0 -16 2 -3 10 19 12
20 12 20 0z m464 -679 c8 -13 -53 -22 -93 -14 l-36 8 45 6 c71 10 78 10 84 0z
m155 -44 c9 -24 55 -35 66 -17 10 16 25 12 19 -5 -4 -8 -12 -15 -19 -15 -7 0
-18 -7 -25 -15 -14 -17 -95 -21 -105 -5 -9 15 -41 12 -54 -4 -8 -9 -24 -12
-49 -9 -21 3 -54 1 -74 -5 -30 -8 -38 -7 -52 9 -9 11 -23 19 -31 19 -8 0 -15
4 -15 9 0 11 130 41 184 42 22 0 50 4 61 9 11 5 35 9 53 9 25 1 34 -4 41 -22z
m126 -177 c21 -23 17 -25 -19 -7 -14 8 -23 17 -19 20 10 11 19 8 38 -13z
m-2685 -154 c0 -3 -4 -8 -10 -11 -5 -3 -10 -1 -10 4 0 6 5 11 10 11 6 0 10 -2
10 -4z m-413 -70 c2 -1 4 -16 6 -32 2 -16 11 -46 20 -68 21 -47 21 -56 3 -56
-8 0 -16 -5 -18 -11 -4 -11 -144 -14 -218 -4 -25 4 -65 8 -89 9 -25 2 -46 7
-48 12 -4 11 -103 12 -121 0 -17 -10 -45 1 -39 17 2 7 23 13 48 13 24 1 47 2
52 3 11 2 8 41 -3 41 -18 0 -11 16 13 27 28 14 59 26 72 29 6 1 12 3 15 4 49
19 111 26 200 22 58 -2 106 -5 107 -6z m323 -241 c0 -8 -4 -15 -10 -15 -5 0
-10 7 -10 15 0 8 5 15 10 15 6 0 10 -7 10 -15z m-2759 -37 c-8 -40 -28 -47
-37 -13 -4 18 -2 30 7 36 27 17 37 10 30 -23z m20 -79 c13 -11 17 -18 9 -15
-8 3 -23 9 -32 12 -10 4 -18 10 -18 15 0 15 16 10 41 -12z m19 -64 c0 -8 -4
-15 -10 -15 -5 0 -10 7 -10 15 0 8 5 15 10 15 6 0 10 -7 10 -15z m6456 -1571
c-4 -9 -9 -15 -11 -12 -3 3 -3 13 1 22 4 9 9 15 11 12 3 -3 3 -13 -1 -22z"/>
<path d="M7032 12750 c0 -14 2 -19 5 -12 2 6 2 18 0 25 -3 6 -5 1 -5 -13z"/>
<path d="M6863 12538 c-11 -13 -23 -30 -26 -39 -6 -18 10 -39 29 -39 20 0 46
50 40 76 -8 30 -17 30 -43 2z"/>
<path d="M6767 12383 c-12 -11 -8 -23 8 -23 8 0 15 7 15 15 0 16 -12 20 -23 8z"/>
<path d="M10900 13060 c0 -5 5 -10 10 -10 6 0 10 5 10 10 0 6 -4 10 -10 10 -5
0 -10 -4 -10 -10z"/>
<path d="M10315 10710 c3 -5 8 -10 11 -10 2 0 4 5 4 10 0 6 -5 10 -11 10 -5 0
-7 -4 -4 -10z"/>
<path d="M9600 9030 c-13 -9 -13 -11 0 -20 8 -5 23 -10 33 -10 15 0 15 3 5 20
-15 23 -17 23 -38 10z"/>
<path d="M7940 9061 c0 -6 5 -13 10 -16 7 -4 5 -14 -5 -28 -22 -31 -20 -67 4
-67 12 0 23 11 30 30 5 17 17 30 26 30 13 0 10 7 -12 30 -27 29 -53 39 -53 21z"/>
<path d="M7768 8813 c6 -2 18 -2 25 0 6 3 1 5 -13 5 -14 0 -19 -2 -12 -5z"/>
<path d="M15847 13080 c7 -244 7 -308 -1 -525 -3 -71 -5 -140 -6 -152 0 -13
-9 -24 -23 -29 -12 -3 -33 -17 -47 -29 -14 -13 -38 -27 -55 -30 -38 -9 -138
-56 -147 -69 -10 -15 9 -33 40 -39 15 -3 52 -14 82 -25 30 -11 72 -23 92 -26
24 -5 39 -13 43 -26 4 -11 12 -20 18 -20 18 0 36 -68 32 -119 -2 -27 1 -48 7
-52 9 -6 9 -11 0 -22 -9 -10 -11 -52 -8 -141 2 -71 0 -126 -5 -126 -13 0 -11
-29 6 -75 18 -50 18 -66 3 -63 -16 4 -14 -85 1 -90 17 -6 13 -22 -5 -22 -14 0
-14 -1 0 -16 9 -8 16 -25 15 -37 0 -21 -1 -21 -8 -3 -4 11 -10 15 -13 10 -3
-5 -1 -20 5 -34 19 -47 22 -156 5 -178 -9 -10 -9 -16 1 -22 10 -5 11 -20 6
-51 -8 -51 -8 -215 0 -274 8 -58 8 -57 0 -87 -6 -23 -4 -28 11 -28 17 -1 18
-2 3 -13 -13 -10 -16 -26 -13 -77 3 -36 5 -69 4 -75 -1 -43 -10 -164 -13 -180
-3 -11 -1 -27 4 -36 5 -9 5 -19 1 -23 -10 -11 -3 -157 10 -189 8 -21 8 -31 0
-36 -13 -8 -23 -189 -11 -196 4 -3 7 -20 6 -37 0 -18 3 -50 7 -71 6 -33 4 -38
-17 -48 -20 -9 -26 -21 -32 -73 -4 -33 -9 -77 -12 -96 -8 -71 1 -356 14 -390
5 -14 9 -51 8 -82 0 -32 3 -58 7 -58 11 0 -3 -191 -17 -234 -10 -33 -10 -42 1
-54 18 -17 18 -36 -1 -52 -8 -6 -14 -15 -13 -18 3 -26 -6 -41 -29 -50 -42 -16
-150 -35 -160 -29 -5 3 -54 -5 -108 -19 -67 -16 -133 -25 -200 -26 -86 -1
-110 -6 -173 -32 -68 -28 -73 -32 -67 -56 4 -14 10 -28 14 -33 7 -7 164 -8
391 -2 134 3 312 -15 355 -36 29 -14 30 -16 33 -99 4 -121 9 -174 16 -197 4
-12 2 -24 -4 -28 -8 -5 -6 -13 5 -25 16 -17 15 -19 -3 -29 -25 -13 -23 -52 3
-81 15 -16 16 -24 6 -47 -11 -29 -12 -35 -12 -120 0 -32 -4 -53 -11 -53 -6 0
-1 -8 10 -19 25 -21 29 -61 7 -61 -12 0 -13 -4 -6 -18 9 -18 8 -40 -4 -93 -5
-17 -1 -31 10 -42 9 -10 14 -17 11 -17 -3 0 -1 -11 4 -25 8 -20 6 -27 -12 -36
-16 -9 -18 -13 -7 -19 11 -7 10 -13 -5 -29 -17 -19 -17 -21 -2 -27 9 -3 16
-15 16 -25 0 -10 5 -19 10 -19 14 0 12 -37 -2 -43 -10 -4 -10 -6 0 -6 15 -1
17 -71 2 -71 -16 0 -7 -84 13 -113 18 -28 22 -47 9 -47 -4 0 -8 -10 -9 -21 -1
-12 -9 -29 -18 -39 -14 -16 -14 -19 -2 -27 18 -10 33 -153 16 -153 -5 0 -7 -5
-4 -10 4 -7 -3 -8 -21 -4 -23 6 -26 4 -21 -10 4 -10 7 -27 7 -38 0 -14 5 -18
15 -14 8 3 15 1 15 -4 0 -6 -4 -10 -10 -10 -5 0 -10 -13 -10 -30 0 -33 25 -43
33 -12 3 10 5 6 6 -10 1 -19 -4 -28 -14 -28 -17 0 -20 -41 -5 -70 8 -15 6 -21
-10 -30 -25 -13 -25 -20 1 -74 11 -24 19 -50 18 -58 -4 -19 21 -88 32 -88 5 0
9 -4 9 -10 0 -5 -7 -10 -15 -10 -14 0 -19 -11 -16 -37 1 -6 -3 -14 -9 -18 -5
-3 -10 -40 -10 -81 0 -44 4 -73 9 -69 20 12 20 -15 0 -33 -14 -13 -17 -22 -9
-27 8 -5 8 -11 -1 -21 -9 -11 -7 -14 11 -14 17 0 21 -4 17 -17 -27 -82 -30
-103 -20 -125 18 -38 23 -71 11 -85 -7 -9 -7 -17 1 -27 10 -12 9 -20 -4 -40
-11 -16 -15 -35 -11 -50 3 -14 2 -27 -3 -30 -13 -8 -4 -88 11 -99 10 -7 10
-10 1 -14 -21 -8 -15 -23 10 -23 21 -1 21 -1 3 -15 -18 -13 -18 -15 0 -32 17
-17 17 -18 -2 -22 -29 -5 -34 -21 -19 -58 12 -28 12 -39 -1 -76 -13 -39 -13
-47 1 -73 9 -18 11 -30 4 -32 -6 -3 -6 -9 2 -18 9 -11 9 -18 1 -26 -7 -7 -6
-22 4 -50 18 -51 18 -53 -1 -38 -10 8 -19 9 -24 4 -14 -15 -20 -81 -8 -93 13
-13 -14 -47 -46 -57 -11 -4 -29 -14 -39 -24 -20 -19 -90 -31 -198 -34 -36 -2
-79 -6 -97 -10 -17 -4 -46 -9 -63 -11 -18 -3 -37 -9 -44 -14 -6 -5 -34 -12
-61 -15 -138 -16 -146 -18 -158 -43 -18 -40 5 -51 118 -59 117 -9 102 -9 280
-2 109 5 146 3 167 -8 15 -8 38 -14 51 -14 40 0 61 -23 59 -66 -1 -21 4 -41
10 -45 9 -6 9 -11 -1 -22 -8 -10 -8 -17 -2 -21 6 -4 8 -27 6 -52 -3 -33 0 -47
11 -51 19 -7 18 -53 0 -53 -23 0 -31 -22 -13 -35 19 -14 22 -38 8 -64 -14 -25
-17 -149 -5 -161 8 -8 34 26 91 117 225 357 479 854 617 1208 26 66 56 140 66
165 61 149 192 537 215 635 8 33 24 87 35 120 40 117 170 665 170 718 l0 24
-377 8 c-404 8 -445 13 -463 59 -15 40 -27 226 -36 536 -6 227 -6 237 15 277
34 67 52 70 486 78 315 6 496 14 504 21 3 3 7 32 9 66 l5 61 -129 -6 c-71 -4
-278 -10 -461 -13 -366 -8 -381 -6 -410 50 -13 24 -16 56 -14 146 2 63 3 138
4 165 0 28 -2 91 -6 140 -4 50 -9 178 -12 285 -11 389 -25 738 -34 880 -15
233 -23 797 -12 819 6 11 30 23 58 30 41 10 333 20 688 25 l100 1 -3 30 c-1
17 -14 68 -27 115 -130 459 -113 416 -165 423 -24 3 -47 13 -55 24 -37 49 -52
217 -25 268 12 22 12 32 -1 68 -13 35 -21 43 -50 49 -19 3 -54 2 -79 -3 -110
-24 -132 -26 -168 -13 -20 7 -43 13 -50 14 -7 0 -38 11 -67 25 -30 13 -61 22
-69 19 -20 -8 -86 22 -86 40 0 17 26 46 43 47 7 1 43 1 80 1 71 0 125 16 211
62 52 28 86 32 117 16 23 -13 25 3 5 39 -10 17 -23 24 -53 26 -22 2 -60 12
-84 22 l-43 19 23 21 c13 12 41 25 63 28 43 8 44 14 7 87 l-19 38 -114 -1
c-101 0 -120 2 -177 26 -84 35 -124 67 -151 118 -18 36 -22 64 -26 184 -5 159
2 190 52 236 17 15 50 33 74 40 l43 13 -32 59 c-32 62 -94 170 -138 242 -14
23 -54 88 -89 145 -111 182 -102 190 -95 -82z m566 -1564 c114 -1 120 -2 139
-26 26 -33 21 -112 -10 -143 -19 -19 -25 -19 -59 -8 -34 11 -44 10 -87 -10
-45 -19 -59 -21 -154 -14 -58 3 -115 10 -128 15 -33 13 -57 64 -48 103 17 78
56 100 159 91 39 -4 123 -7 188 -8z"/>
<path d="M13258 12963 c6 -2 18 -2 25 0 6 3 1 5 -13 5 -14 0 -19 -2 -12 -5z"/>
<path d="M13845 12710 c3 -5 10 -10 16 -10 5 0 9 5 9 10 0 6 -7 10 -16 10 -8
0 -12 -4 -9 -10z"/>
<path d="M757 12153 c-20 -37 -122 -279 -159 -373 -206 -530 -346 -1017 -444
-1540 -68 -365 -129 -856 -122 -986 l3 -59 185 -3 c180 -3 186 -3 205 18 19
21 20 40 21 524 1 445 3 505 18 534 27 52 61 63 180 60 164 -5 179 16 151 207
-7 50 -8 97 -3 125 12 60 11 422 0 485 -6 28 -10 270 -10 539 -1 268 -3 490
-6 493 -2 3 -11 -8 -19 -24z"/>
<path d="M11496 8723 c-9 -9 -7 -33 3 -33 12 0 22 28 12 34 -5 3 -11 3 -15 -1z"/>
<path d="M530 7837 c-96 -4 -247 -6 -334 -3 l-159 5 7 -92 c10 -132 61 -495
97 -682 109 -582 255 -1091 459 -1605 71 -178 77 -192 128 -306 90 -203 82
-255 83 561 1 396 3 776 5 845 2 69 5 376 6 682 3 488 1 559 -12 573 -26 25
-96 31 -280 22z"/>
<path d="M7100 7430 c11 -20 30 -28 30 -12 0 11 -22 32 -32 32 -5 0 -4 -9 2
-20z"/>
<path d="M15898 6953 c7 -3 16 -2 19 1 4 3 -2 6 -13 5 -11 0 -14 -3 -6 -6z"/>
<path d="M15890 5880 c0 -5 5 -10 10 -10 6 0 10 5 10 10 0 6 -4 10 -10 10 -5
0 -10 -4 -10 -10z"/>
<path d="M11975 5583 c-30 -8 -100 -59 -118 -87 -9 -13 -26 -27 -37 -31 -11
-4 -18 -10 -15 -15 13 -21 264 -80 343 -80 36 0 43 3 38 16 -3 9 -6 36 -6 60
0 36 -6 51 -36 84 -46 50 -105 69 -169 53z"/>
<path d="M8070 5440 c0 -5 5 -10 10 -10 6 0 10 5 10 10 0 6 -4 10 -10 10 -5 0
-10 -4 -10 -10z"/>
<path d="M8106 5363 c10 -39 85 -153 102 -153 12 0 11 5 -2 25 -9 13 -16 32
-17 42 -1 28 -53 108 -73 111 -14 3 -16 -1 -10 -25z"/>
<path d="M8050 5311 c0 -18 6 -31 16 -35 25 -10 27 -1 9 33 -19 39 -25 39 -25
2z"/>
<path d="M11320 5223 c1 -23 19 -34 44 -27 15 3 24 10 19 14 -12 11 -63 21
-63 13z"/>
<path d="M6821 5105 c-41 -13 -105 -31 -142 -40 -38 -10 -69 -21 -69 -25 0
-11 74 0 150 22 36 11 96 28 133 38 38 10 71 21 75 24 14 15 -80 2 -147 -19z"/>
<path d="M7250 5014 c1 -5 7 -20 15 -34 13 -24 14 -24 15 -4 0 12 -7 27 -15
34 -8 7 -15 9 -15 4z"/>
<path d="M11620 5005 c0 -8 4 -15 9 -15 5 0 11 7 15 15 3 9 0 15 -9 15 -8 0
-15 -7 -15 -15z"/>
<path d="M10558 4718 c-10 -12 -16 -23 -14 -26 8 -8 46 19 46 33 0 21 -12 18
-32 -7z"/>
<path d="M4935 4661 c-11 -5 -49 -12 -85 -16 -47 -6 -60 -10 -45 -16 47 -18
163 1 173 29 4 14 -13 15 -43 3z"/>
<path d="M1078 4623 c6 -2 18 -2 25 0 6 3 1 5 -13 5 -14 0 -19 -2 -12 -5z"/>
<path d="M8540 4595 c-25 -14 -62 -32 -82 -41 -25 -11 -40 -27 -47 -47 -22
-62 -15 -84 49 -150 33 -34 82 -87 110 -117 57 -62 64 -53 30 45 -31 90 -27
137 15 184 19 21 35 44 35 52 0 23 -41 99 -53 98 -7 0 -32 -11 -57 -24z"/>
<path d="M13670 4474 c0 -8 71 -36 78 -30 3 3 -11 13 -31 21 -40 16 -47 18
-47 9z"/>
<path d="M8150 4424 c-50 -22 -186 -56 -250 -63 l-55 -6 3 -105 c3 -155 11
-239 22 -261 6 -10 8 -35 4 -53 -7 -42 43 -624 56 -648 6 -10 10 -34 10 -53 0
-19 5 -35 10 -35 17 0 23 29 10 46 -17 19 3 45 21 27 8 -8 20 -7 43 6 21 12
66 21 128 26 67 5 101 11 109 22 10 12 9 77 -6 321 -10 169 -18 348 -18 397
l1 90 28 -3 c204 -20 250 -6 78 23 -125 21 -119 14 -130 168 -6 98 -5 105 12
110 12 3 8 5 -11 5 -16 1 -46 -6 -65 -14z"/>
<path d="M8735 4410 c-4 -6 17 -32 46 -58 79 -72 89 -72 33 -2 -54 67 -68 78
-79 60z"/>
<path d="M13944 4351 c4 -6 14 -11 22 -11 8 0 26 -7 39 -16 14 -9 25 -12 25
-7 0 10 -31 28 -69 38 -16 5 -21 4 -17 -4z"/>
<path d="M14054 4301 c3 -5 15 -11 26 -14 17 -4 19 -3 9 9 -12 15 -44 20 -35
5z"/>
<path d="M10561 4237 c-25 -6 -46 -17 -48 -24 -3 -9 16 -11 79 -8 144 8 201
16 189 28 -16 16 -169 19 -220 4z"/>
<path d="M14764 4230 c-239 -5 -264 -7 -283 -24 -27 -25 -27 -58 2 -91 l22
-26 275 11 c282 12 341 21 355 58 5 15 -19 62 -33 62 -4 0 -23 4 -42 8 -19 4
-153 5 -296 2z"/>
<path d="M8596 4162 c-7 -12 22 -38 31 -28 4 3 0 14 -9 22 -9 10 -18 12 -22 6z"/>
<path d="M10590 4154 c-47 -7 -95 -11 -107 -8 -16 5 -27 -3 -47 -33 l-26 -38
26 -3 c15 -2 31 1 37 7 15 15 36 14 54 -5 14 -13 34 -15 137 -8 148 8 170 14
174 42 2 12 10 22 18 22 20 0 17 28 -3 34 -30 9 -173 3 -263 -10z m-13 -50
c-3 -3 -12 -4 -19 -1 -8 3 -5 6 6 6 11 1 17 -2 13 -5z"/>
<path d="M7643 4147 c-46 -17 -45 -31 2 -35 43 -3 83 17 71 36 -9 15 -31 14
-73 -1z"/>
<path d="M10910 4156 c0 -15 32 -76 40 -76 14 0 12 54 -2 68 -11 11 -38 17
-38 8z"/>
<path d="M8681 4131 c-10 -6 -11 -13 -2 -29 6 -11 11 -34 11 -50 0 -25 25 -62
43 -62 9 0 37 30 37 41 0 5 -6 9 -14 9 -7 0 -19 7 -26 15 -16 19 1 42 33 47
19 3 18 5 -12 21 -38 19 -50 21 -70 8z"/>
<path d="M8280 4071 c0 -5 15 -18 34 -29 25 -15 45 -19 75 -15 22 3 38 10 35
15 -4 5 -17 7 -31 3 -15 -3 -22 -2 -18 4 3 6 -6 13 -20 16 -14 3 -36 7 -50 10
-14 3 -25 1 -25 -4z"/>
<path d="M11207 4070 c19 -21 80 -39 185 -55 112 -17 138 -18 138 -6 0 4 -31
11 -68 14 -59 5 -192 34 -249 53 -14 6 -16 4 -6 -6z"/>
<path d="M7690 4051 c0 -6 5 -13 10 -16 6 -3 10 1 10 9 0 9 -4 16 -10 16 -5 0
-10 -4 -10 -9z"/>
<path d="M10006 4024 c-5 -14 -4 -15 9 -4 17 14 19 20 6 20 -5 0 -12 -7 -15
-16z"/>
<path d="M10630 3995 c-109 -15 -155 -29 -128 -40 24 -10 10 -35 -19 -35 -20
0 -24 -4 -18 -17 4 -10 9 -26 12 -35 3 -10 14 -20 25 -24 15 -4 17 -8 8 -14
-9 -6 -9 -12 0 -30 6 -12 9 -28 6 -35 -7 -19 14 -31 25 -14 7 11 9 11 9 -2 0
-22 23 -39 64 -49 33 -7 37 -5 55 26 12 21 28 34 40 34 24 0 49 38 29 44 -42
13 -43 14 -27 15 9 1 20 11 24 24 4 13 8 17 12 10 6 -16 26 -17 21 -1 -2 6 4
20 15 31 14 14 18 28 14 53 -4 25 -2 34 9 34 20 0 17 18 -5 30 -23 12 -46 11
-171 -5z"/>
<path d="M10355 3950 c-11 -22 -12 -34 -2 -59 13 -35 27 -41 27 -12 0 11 5 23
11 27 8 5 7 9 -1 14 -18 11 -4 44 15 36 8 -3 15 -2 15 3 0 5 -11 11 -25 14
-21 3 -29 -1 -40 -23z"/>
<path d="M10425 3870 c3 -5 8 -10 11 -10 2 0 4 5 4 10 0 6 -5 10 -11 10 -5 0
-7 -4 -4 -10z"/>
<path d="M9169 3847 c7 -9 20 -17 27 -17 7 0 39 -11 70 -25 32 -14 60 -23 63
-19 12 11 -40 42 -87 53 -26 5 -56 13 -67 17 -18 7 -18 6 -6 -9z"/>
<path d="M10289 3829 c-13 -26 2 -69 25 -69 13 0 36 54 36 83 0 17 -50 6 -61
-14z"/>
<path d="M10300 3730 c0 -5 7 -10 16 -10 8 0 12 5 9 10 -3 6 -10 10 -16 10 -5
0 -9 -4 -9 -10z"/>
<path d="M5098 3713 c-10 -2 -18 -8 -18 -13 0 -4 9 -6 20 -3 11 3 20 9 20 14
0 5 -1 8 -2 8 -2 -1 -11 -3 -20 -6z"/>
<path d="M9853 3713 c-24 -9 -13 -23 18 -23 20 0 29 4 27 13 -5 13 -26 18 -45
10z"/>
<path d="M4832 3693 c2 -13 11 -17 28 -15 43 7 42 15 -3 26 -24 6 -28 4 -25
-11z"/>
<path d="M9987 3703 c-11 -10 -8 -201 2 -208 14 -8 22 26 22 101 1 37 5 78 10
91 7 19 5 23 -10 23 -10 0 -21 -3 -24 -7z"/>
<path d="M9763 3685 c-10 -7 -15 -17 -11 -20 9 -9 58 3 58 14 0 16 -28 20 -47
6z"/>
<path d="M5080 3642 l-35 -17 36 -3 c27 -2 38 -9 42 -23 8 -28 -11 -33 -106
-26 -84 6 -167 -8 -167 -28 0 -11 139 -11 243 1 56 6 57 6 57 37 0 45 -10 77
-24 76 -6 0 -27 -8 -46 -17z"/>
<path d="M9569 3627 c-22 -18 -42 -49 -49 -72 -7 -22 -18 -53 -26 -70 -8 -16
-16 -52 -19 -80 l-6 -50 21 65 c12 36 25 74 30 85 4 11 12 29 16 40 7 18 8 18
11 -6 2 -14 -5 -49 -16 -78 -21 -53 -28 -121 -12 -121 14 0 29 23 36 55 9 43
45 163 61 208 8 20 14 42 14 47 0 19 -25 9 -61 -23z"/>
<path d="M12104 3509 c7 -44 20 -68 32 -57 3 4 1 15 -5 26 -6 12 -11 30 -11
41 0 11 -5 23 -12 27 -8 5 -9 -5 -4 -37z"/>
<path d="M5107 3483 c-15 -15 -5 -32 21 -35 19 -2 28 -9 30 -25 2 -13 -2 -23
-8 -23 -6 0 -16 -11 -22 -25 -22 -48 -189 -72 -234 -34 -15 12 -16 8 -9 -41
15 -110 19 -242 9 -361 -6 -79 4 -119 30 -119 8 0 16 6 19 14 4 11 14 11 54 2
26 -6 59 -17 72 -25 23 -12 27 -11 47 12 19 22 22 41 29 169 3 78 13 186 21
238 17 113 18 172 3 223 -8 29 -15 37 -33 37 -12 0 -26 -3 -29 -7z m-112 -264
c5 -6 4 -9 -3 -9 -7 0 -12 -7 -12 -15 0 -9 -6 -12 -17 -8 -13 5 -15 2 -10 -16
8 -32 -15 -21 -26 12 -15 46 31 70 68 36z"/>
<path d="M12111 3327 c-7 -10 -8 -23 -3 -38 15 -38 34 -195 28 -217 -8 -24 29
-42 90 -42 24 0 61 -7 81 -15 49 -21 87 -20 79 1 -4 9 -12 37 -18 63 -6 25
-17 55 -25 67 -7 11 -10 23 -7 27 3 3 -3 3 -14 0 -29 -7 -36 13 -11 36 l22 20
-44 44 c-35 36 -53 46 -93 51 -27 4 -54 10 -61 12 -6 3 -17 -1 -24 -9z"/>
<path d="M13484 3313 c-212 -53 -243 -65 -223 -89 6 -8 17 -14 25 -14 7 0 23
-20 35 -45 18 -35 20 -48 11 -57 -7 -7 -12 -29 -12 -49 0 -21 -4 -41 -10 -44
-5 -3 -10 -13 -10 -21 0 -24 74 -17 204 20 67 19 147 38 179 41 46 6 57 11 57
26 0 10 -4 21 -10 24 -5 3 -10 1 -10 -5 0 -7 -5 -10 -12 -8 -19 7 -16 58 4 69
26 14 22 29 -12 40 -34 13 -36 16 -14 47 8 12 13 26 9 31 -3 5 2 17 11 25 14
15 14 16 -3 17 -16 0 -16 1 2 9 42 18 -133 4 -221 -17z m145 -25 c-1 -33 -15
-97 -19 -88 -5 13 -9 104 -4 112 12 19 24 6 23 -24z m1 -142 c0 -8 -4 -18 -10
-21 -5 -3 -10 -4 -10 -1 0 2 -3 11 -6 20 -4 11 -1 16 10 16 9 0 16 -6 16 -14z"/>
<path d="M11660 3309 c-14 -4 -77 -8 -140 -8 -101 -1 -236 -14 -245 -23 -2 -2
5 -37 16 -78 10 -41 20 -104 21 -139 l1 -63 66 6 c133 14 344 25 373 19 16 -3
83 0 149 7 l119 14 0 60 c0 35 -7 73 -15 90 -8 15 -15 51 -15 78 l0 49 -152
-2 c-84 -2 -164 -6 -178 -10z m-240 -279 c0 -5 -9 -10 -19 -10 -11 0 -23 5
-26 10 -4 6 5 10 19 10 14 0 26 -4 26 -10z"/>
<path d="M10385 3270 c-27 -4 -81 -17 -120 -28 -38 -12 -100 -24 -137 -28
l-66 -7 5 -32 c5 -31 -15 -65 -38 -65 -12 0 -12 0 5 48 10 27 11 44 5 48 -14
8 -79 -5 -79 -16 0 -6 4 -10 9 -10 10 0 4 -167 -7 -220 -6 -27 -13 -35 -30
-34 -35 1 -25 -14 13 -22 58 -10 300 32 332 58 9 7 10 15 2 30 -14 27 -4 34
26 18 18 -10 22 -17 14 -26 -8 -9 -3 -12 23 -10 61 5 63 7 33 20 l-30 14 26
10 c21 8 25 15 21 44 -2 18 3 46 12 62 11 22 12 34 4 50 -9 17 -5 25 32 56 36
31 40 38 26 43 -10 4 -21 6 -24 6 -4 -1 -29 -5 -57 -9z m-341 -205 c4 -19 11
-35 16 -35 9 0 2 -39 -12 -56 -4 -6 -6 -19 -2 -28 4 -11 1 -16 -10 -16 -9 0
-19 0 -23 0 -11 0 -12 89 -1 133 11 46 24 47 32 2z m106 -25 c0 -5 -5 -10 -11
-10 -5 0 -7 5 -4 10 3 6 8 10 11 10 2 0 4 -4 4 -10z m-33 -11 c15 -15 4 -47
-19 -55 -24 -7 -38 4 -19 15 8 5 11 17 6 30 -7 23 13 29 32 10z"/>
<path d="M11134 3272 c-19 -3 -21 -8 -17 -55 7 -75 21 -113 49 -131 28 -19 32
-38 7 -30 -17 5 -17 5 0 -6 13 -8 15 -16 7 -29 -12 -24 -4 -31 36 -31 36 0 50
13 37 33 -4 6 -9 30 -10 52 -1 22 -5 74 -9 117 l-6 76 -37 4 c-20 1 -45 2 -57
0z m66 -72 c0 -5 -2 -10 -4 -10 -3 0 -8 5 -11 10 -3 6 -1 10 4 10 6 0 11 -4
11 -10z"/>
<path d="M12865 3269 c-4 -6 -5 -12 -2 -15 7 -7 37 7 37 17 0 13 -27 11 -35
-2z"/>
<path d="M11020 3259 c0 -7 7 -55 15 -108 8 -53 16 -109 17 -126 2 -22 8 -30
23 -30 18 0 20 6 17 70 -2 39 -10 86 -16 106 -7 20 -11 51 -8 68 4 28 2 31
-22 31 -14 0 -26 -5 -26 -11z"/>
<path d="M12800 3263 c-33 -12 -41 -25 -27 -42 20 -24 40 -116 32 -151 -5 -23
-3 -30 9 -30 9 0 16 -7 16 -15 0 -8 -6 -15 -13 -15 -29 0 -48 28 -64 97 -19
81 -45 125 -63 107 -9 -9 -9 -17 -1 -32 6 -11 11 -28 11 -37 0 -9 9 -35 20
-57 11 -23 20 -55 20 -70 0 -33 24 -47 51 -30 10 7 34 12 52 12 18 0 41 6 52
13 17 13 17 16 -9 70 -27 57 -50 152 -41 167 4 6 -21 23 -28 19 -1 0 -9 -3
-17 -6z"/>
<path d="M9490 3232 c-25 -9 -30 -24 -30 -105 0 -54 -3 -76 -11 -71 -7 4 -10
36 -8 85 2 43 0 81 -4 85 -4 4 -16 -1 -26 -10 -11 -10 -46 -25 -78 -35 l-58
-17 -1 -50 c-2 -80 -4 -94 -12 -94 -5 0 -13 30 -18 68 l-9 67 -35 3 c-19 1
-30 -1 -25 -5 6 -4 18 -18 28 -30 18 -21 18 -23 -5 -72 -12 -28 -25 -51 -28
-51 -14 1 -66 59 -68 75 -1 11 -3 35 -6 53 -3 27 -1 32 17 33 12 1 0 5 -28 9
-27 3 -95 4 -150 2 -55 -3 -118 -6 -140 -7 -61 -1 -62 -4 -53 -92 5 -43 10
-105 11 -138 2 -53 5 -60 23 -63 21 -3 21 0 17 86 -3 69 -1 91 11 101 21 17
26 4 33 -88 4 -55 2 -85 -6 -95 -18 -21 29 -24 198 -14 80 5 167 8 193 5 43
-4 47 -2 54 22 l7 26 6 -25 c6 -20 14 -26 44 -28 27 -2 39 1 43 13 9 23 65 50
74 35 4 -6 25 -10 49 -8 l42 3 5 115 c2 63 6 129 9 146 7 39 -31 78 -65 66z
m-290 -247 c-7 -8 -10 -24 -7 -34 3 -12 -1 -22 -11 -26 -23 -8 -36 10 -17 25
8 7 15 18 15 24 0 14 22 38 28 31 3 -2 -1 -11 -8 -20z m-255 -21 c0 -16 4 -35
8 -42 9 -13 -8 -42 -24 -42 -5 0 -9 27 -9 61 0 44 3 60 13 56 6 -2 12 -17 12
-33z"/>
<path d="M14040 3211 c-6 -12 -6 -22 -1 -26 10 -6 14 -1 24 28 9 23 -10 22
-23 -2z"/>
<path d="M8155 3200 c-27 -5 -86 -9 -131 -9 -71 -1 -83 -4 -102 -24 -13 -14
-18 -27 -13 -33 5 -5 12 -65 15 -134 7 -160 8 -161 126 -149 47 4 120 11 162
15 113 10 114 11 99 181 -7 75 -17 143 -23 150 -11 14 -54 15 -133 3z"/>
<path d="M13820 3207 c0 -1 -9 -27 -20 -57 -24 -63 -53 -206 -46 -219 3 -5 17
-11 31 -13 22 -5 25 -2 25 23 0 15 -5 29 -12 31 -8 3 -5 13 10 32 12 16 19 33
16 38 -3 5 0 15 6 23 6 8 9 24 5 35 -4 14 -1 28 11 41 14 16 15 24 6 44 -6 14
-16 25 -22 25 -5 0 -10 -1 -10 -3z"/>
<path d="M4353 3183 c-18 -6 -16 -23 1 -23 17 0 30 16 19 23 -5 2 -14 2 -20 0z"/>
<path d="M9732 3178 c3 -8 24 -14 52 -16 50 -3 65 -18 48 -48 -9 -16 -10 -15
-16 4 -5 16 -15 22 -37 22 -16 0 -29 -3 -29 -8 0 -10 39 -36 65 -42 12 -4 25
-20 31 -40 l11 -35 7 50 c3 28 2 66 -2 85 l-8 35 -63 3 c-48 2 -62 0 -59 -10z"/>
<path d="M9897 3163 c-5 -31 0 -139 8 -191 5 -26 9 -31 19 -22 10 7 14 39 14
105 0 52 4 104 7 115 5 16 2 20 -18 20 -19 0 -26 -6 -30 -27z"/>
<path d="M7525 3143 c-222 -15 -422 -32 -449 -40 -15 -4 -17 -11 -11 -37 10
-44 6 -219 -6 -231 -5 -5 -9 -13 -9 -17 0 -11 198 -10 257 1 26 5 118 14 203
20 85 7 189 14 230 17 l76 6 -8 61 c-5 34 -7 71 -7 82 1 11 2 47 2 80 l0 60
-44 5 c-24 3 -129 -1 -234 -7z"/>
<path d="M2760 3110 c-10 -18 -7 -24 13 -21 4 0 7 -3 7 -9 0 -5 -6 -10 -14
-10 -8 0 -16 -14 -20 -33 -3 -18 -15 -40 -26 -50 -11 -9 -20 -26 -20 -36 0
-11 -5 -23 -10 -26 -6 -4 -8 -15 -5 -25 3 -10 -1 -35 -10 -56 -20 -48 -9 -59
42 -47 36 8 38 11 40 52 2 47 16 71 42 71 18 0 41 78 41 136 0 16 7 40 16 52
15 22 15 22 -35 22 -40 0 -52 -4 -61 -20z"/>
<path d="M6930 3093 c-52 -7 -59 -17 -54 -76 3 -29 6 -92 7 -140 l2 -89 35 6
c19 3 46 6 60 6 46 1 50 9 34 80 -9 36 -15 74 -14 85 7 113 3 137 -24 133 -6
0 -27 -3 -46 -5z"/>
<path d="M6792 3067 c-14 -16 -15 -55 -4 -124 5 -29 6 -75 2 -103 -5 -37 -3
-51 8 -55 40 -15 66 3 53 37 -8 22 -20 125 -25 222 -1 33 -17 44 -34 23z"/>
<path d="M3281 3003 c-16 -39 -10 -68 8 -35 7 13 11 33 9 45 -3 19 -5 18 -17
-10z"/>
<path d="M13990 2970 c-24 -47 -27 -60 -15 -60 8 0 15 -6 16 -12 0 -7 8 12 18
42 10 30 22 63 26 73 4 10 3 17 -4 17 -6 0 -24 -27 -41 -60z"/>
<path d="M14190 2995 c-11 -13 -9 -20 10 -40 36 -38 49 -33 37 15 -12 42 -26
50 -47 25z"/>
<path d="M14111 2934 c-17 -14 -40 -43 -53 -65 -24 -43 -67 -79 -69 -57 -1 7
-1 21 0 30 2 12 -3 16 -13 12 -9 -3 -16 -16 -16 -28 0 -12 -38 -97 -84 -190
-46 -93 -82 -175 -79 -182 3 -7 -5 -25 -16 -40 -13 -17 -21 -41 -21 -65 0 -46
-19 -92 -35 -85 -8 3 -16 -15 -23 -47 -13 -61 -25 -245 -16 -258 3 -6 45 46
92 114 130 184 238 320 342 430 25 26 51 59 59 72 14 22 12 25 -17 50 -18 15
-32 32 -32 39 0 6 -12 27 -28 46 -35 45 -68 107 -60 116 15 14 52 -11 85 -57
19 -27 43 -54 52 -59 22 -11 43 2 35 23 -5 13 -1 17 16 17 12 0 20 4 18 9 -14
39 -94 201 -100 201 -3 0 -20 -12 -37 -26z"/>
<path d="M14250 2883 c0 -21 10 -42 30 -63 41 -44 47 -32 15 27 -37 66 -45 73
-45 36z"/>
<path d="M4270 2872 c0 -26 23 -77 40 -89 16 -11 20 -25 20 -72 0 -32 5 -62
13 -69 6 -7 17 -32 23 -55 6 -25 16 -42 25 -42 29 -1 39 -17 39 -64 0 -33 6
-56 20 -74 11 -14 20 -33 20 -42 0 -19 26 -73 48 -97 22 -26 34 -11 17 22 -28
53 -25 55 108 69 172 18 180 20 171 39 -4 10 -9 53 -11 97 -2 44 -8 92 -14
107 -7 18 -7 32 -1 45 6 11 7 25 2 32 -6 11 -34 12 -156 2 -82 -7 -168 -17
-192 -23 -53 -13 -70 -1 -79 58 -3 21 -11 46 -18 54 -6 8 -22 36 -34 63 -20
41 -41 62 -41 39z m335 -262 c-3 -5 -11 -10 -16 -10 -6 0 -7 5 -4 10 3 6 11
10 16 10 6 0 7 -4 4 -10z m-95 -114 c0 -8 -5 -18 -11 -22 -14 -8 -33 11 -25
25 10 16 36 13 36 -3z"/>
<path d="M3312 2837 c-6 -12 -14 -32 -17 -44 -9 -32 -25 -28 -25 5 0 42 -11
46 -32 11 -21 -34 -17 -49 15 -49 12 0 31 -7 41 -15 37 -28 46 -19 46 44 0 65
-11 83 -28 48z"/>
<path d="M5665 2853 c-11 -3 -29 -13 -40 -23 -63 -57 -209 -109 -335 -119 -57
-5 -75 -10 -75 -21 0 -10 14 -17 42 -20 48 -6 46 -16 -7 -46 -19 -10 -37 -20
-39 -21 -2 -2 1 -8 7 -15 7 -9 6 -18 -3 -32 -23 -31 -35 -8 -33 65 2 98 -3
101 -157 93 -66 -3 -123 -9 -128 -13 -9 -9 -11 -166 -2 -206 4 -16 12 -43 18
-59 9 -24 8 -31 -8 -42 -13 -9 -14 -14 -5 -14 7 0 21 -6 29 -14 12 -10 29 -12
71 -6 30 5 83 9 117 9 36 1 63 6 65 12 2 6 58 20 123 30 66 10 140 23 164 29
57 14 251 106 251 118 0 6 17 17 38 25 39 16 75 47 53 47 -6 0 -11 -4 -11 -8
0 -11 -51 -35 -58 -27 -3 3 -2 5 2 5 4 0 2 8 -3 18 -8 15 -5 18 20 20 17 1 40
9 52 16 12 8 41 17 65 21 49 8 54 21 14 32 -16 4 -43 20 -61 36 -29 24 -31 30
-20 44 13 15 11 16 -13 10 -22 -6 -30 -3 -40 13 -7 11 -18 20 -25 20 -17 0
-17 17 0 23 15 7 -41 6 -68 0z m-425 -347 c0 -2 -3 -11 -6 -20 -9 -23 -34 -20
-34 4 0 13 7 20 20 20 11 0 20 -2 20 -4z m129 -52 c2 -2 -17 -4 -42 -4 -26 0
-47 5 -47 10 0 9 78 4 89 -6z m-145 -9 c3 -9 0 -15 -9 -15 -9 0 -12 6 -9 15 4
8 7 15 9 15 2 0 5 -7 9 -15z"/>
<path d="M3730 2791 c0 -10 7 -21 15 -25 23 -8 18 -34 -7 -38 -28 -4 -39 -55
-14 -64 22 -9 20 -21 -5 -27 -27 -7 -15 -27 17 -27 26 0 30 -11 14 -39 -6 -13
-17 -17 -35 -13 l-26 4 22 -36 c31 -53 103 -120 187 -174 40 -26 103 -71 139
-99 36 -29 70 -53 75 -53 6 0 26 -14 45 -30 18 -17 60 -43 92 -60 33 -16 61
-33 63 -37 1 -4 23 -25 48 -45 74 -60 157 -141 169 -166 25 -49 33 -10 31 167
-2 97 -4 183 -7 193 -2 9 -16 19 -31 23 -47 12 -153 95 -169 132 -22 54 -106
128 -207 182 -106 56 -144 80 -229 140 -70 51 -168 111 -179 111 -5 0 -8 -9
-8 -19z m80 -291 c-20 -13 -33 -13 -25 0 3 6 14 10 23 10 15 0 15 -2 2 -10z"/>
<path d="M5872 2758 c-20 -20 -14 -30 16 -26 16 2 27 9 27 18 0 19 -27 24 -43
8z"/>
<path d="M14225 2696 c-18 -13 -11 -46 10 -46 7 0 20 11 28 24 15 22 15 24 -3
29 -10 3 -26 0 -35 -7z"/>
<path d="M14454 2646 c-8 -21 23 -103 41 -110 10 -4 20 6 30 30 16 39 13 45
-37 78 -26 17 -28 17 -34 2z"/>
<path d="M12216 2631 c-3 -5 0 -11 8 -14 15 -6 26 1 26 15 0 11 -27 10 -34 -1z"/>
<path d="M14360 2593 c-14 -9 -37 -33 -52 -54 -17 -24 -36 -39 -49 -39 -46 0
-164 -116 -199 -195 -10 -22 -62 -88 -117 -147 -77 -85 -108 -127 -146 -203
-50 -99 -51 -100 -99 -80 -17 7 -18 -2 -18 -109 0 -64 4 -116 9 -116 5 0 27
15 49 33 22 17 104 82 183 142 171 131 266 223 297 287 12 26 26 48 30 50 4 2
27 34 51 71 l44 68 -12 66 c-7 36 -10 67 -7 70 2 3 14 0 25 -7 14 -7 21 -21
21 -40 0 -16 4 -31 8 -34 13 -7 49 46 67 96 20 59 19 101 -6 132 -23 29 -42
31 -79 9z"/>
<path d="M12225 2562 c-9 -10 -5 -61 6 -68 6 -3 21 -1 32 5 12 6 47 15 77 19
l55 9 -45 13 c-64 18 -119 28 -125 22z"/>
<path d="M8205 2468 c-187 -18 -218 -23 -223 -35 -3 -10 14 -13 60 -13 60 0
268 26 276 35 6 5 -8 25 -16 24 -4 -1 -47 -6 -97 -11z"/>
<path d="M9355 2390 c-10 -16 16 -43 28 -31 11 11 2 41 -12 41 -5 0 -13 -5
-16 -10z"/>
<path d="M8235 2379 c-22 -5 -86 -9 -142 -9 -109 -1 -125 -9 -102 -52 8 -16
17 -18 37 -13 15 4 72 11 127 15 134 11 170 21 170 45 0 23 -29 28 -90 14z"/>
<path d="M9425 2382 c-3 -3 -5 -23 -5 -44 0 -30 4 -38 18 -38 10 0 23 -5 28
-10 13 -13 50 73 39 89 -6 10 -70 12 -80 3z"/>
<path d="M9564 2175 c-16 -24 -15 -26 7 -45 29 -24 33 -24 49 -5 10 12 10 21
0 45 -15 37 -34 38 -56 5z"/>
<path d="M9431 2125 c0 -11 4 -27 9 -35 9 -13 10 -13 9 0 0 8 -4 24 -9 35 l-9
20 0 -20z"/>
<path d="M9422 2040 c0 -14 2 -19 5 -12 2 6 2 18 0 25 -3 6 -5 1 -5 -13z"/>
<path d="M5185 1981 c-3 -6 -37 -11 -74 -11 -114 0 -161 -10 -161 -33 0 -16 3
-17 14 -8 10 8 56 11 138 10 123 -1 123 -1 123 22 0 25 -28 38 -40 20z"/>
<path d="M5155 1887 c-33 -6 -93 -11 -133 -11 -57 -1 -73 -4 -77 -17 -7 -22 9
-66 19 -51 5 8 48 12 136 12 120 0 129 1 135 20 7 22 -2 61 -13 59 -4 -1 -34
-6 -67 -12z"/>
<path d="M12280 1810 c0 -19 3 -21 12 -12 9 9 9 15 0 24 -9 9 -12 7 -12 -12z"/>
<path d="M4203 1787 c-4 -8 -16 -16 -25 -20 -23 -8 -18 -20 60 -136 35 -53 71
-109 79 -126 9 -16 31 -48 49 -71 18 -22 37 -49 41 -60 4 -11 38 -69 74 -129
38 -62 74 -137 84 -172 16 -58 20 -63 75 -97 32 -20 63 -36 68 -36 18 0 -19
92 -53 135 -56 69 -58 78 -66 280 -8 205 -36 415 -54 415 -6 0 -16 -5 -21 -10
-12 -12 -64 3 -64 19 0 18 -84 10 -105 -10 -18 -16 -24 -17 -47 -5 -23 12 -29
12 -39 0 -13 -16 -49 -19 -49 -4 0 6 7 13 15 16 8 4 12 10 9 15 -8 13 -22 11
-31 -4z"/>
<path d="M4946 1748 c-3 -13 -7 -52 -10 -88 -4 -52 -3 -60 6 -40 6 14 13 41
17 60 4 25 12 36 29 40 31 7 29 19 -4 36 -34 18 -33 18 -38 -8z"/>
<path d="M12296 1555 c4 -8 8 -15 10 -15 2 0 4 7 4 15 0 8 -4 15 -10 15 -5 0
-7 -7 -4 -15z"/>
<path d="M8340 1520 c0 -5 -16 -10 -36 -10 -31 0 -35 -3 -32 -22 2 -15 11 -24
27 -26 13 -2 32 -14 42 -25 18 -22 18 -21 19 36 0 31 -4 57 -10 57 -5 0 -10
-4 -10 -10z"/>
<path d="M12292 1458 c3 -63 3 -63 33 -62 150 7 269 15 273 18 2 3 2 11 -1 19
-5 14 -76 27 -154 27 -24 0 -43 5 -45 12 -4 10 -10 10 -32 0 -27 -12 -57 -3
-54 16 2 19 -3 32 -12 32 -7 0 -10 -24 -8 -62z"/>
<path d="M4926 1424 c-10 -26 -7 -144 4 -144 6 0 10 16 10 35 0 35 35 85 60
85 5 0 10 4 10 9 0 9 -9 13 -61 27 -9 3 -19 -3 -23 -12z"/>
<path d="M12293 1355 c-6 -17 2 -93 11 -102 7 -7 284 -5 296 2 16 10 11 82 -6
99 -23 23 -292 24 -301 1z"/>
<path d="M8038 1285 c-10 -46 -9 -218 1 -234 7 -10 13 -11 32 -1 14 8 76 14
163 15 l141 3 0 59 0 58 -125 5 c-69 3 -135 3 -146 -1 -32 -11 -38 2 -8 18 18
9 66 13 150 13 75 0 125 4 129 11 4 5 4 22 0 36 -4 19 -9 23 -18 14 -7 -7 -61
-11 -158 -11 -145 0 -148 0 -151 23 -3 19 -5 18 -10 -8z"/>
<path d="M9394 1263 c-9 -36 6 -46 57 -36 37 7 44 13 47 33 3 24 0 25 -48 27
-46 1 -51 -1 -56 -24z"/>
<path d="M9307 1255 c-20 -14 -37 -30 -37 -36 0 -18 33 -23 45 -6 7 10 20 17
29 17 10 0 16 8 16 25 0 31 -6 31 -53 0z"/>
<path d="M9396 1194 c-9 -23 -7 -97 3 -112 6 -10 21 -12 55 -7 l47 7 -3 52
c-3 50 -3 51 -38 54 -19 2 -40 8 -46 13 -8 6 -14 4 -18 -7z"/>
<path d="M9333 1180 c-3 -11 -13 -20 -22 -20 -10 0 -26 -6 -36 -14 -15 -11
-17 -18 -8 -42 34 -95 35 -105 18 -124 -14 -15 -16 -39 -12 -176 3 -88 1 -164
-3 -169 -5 -6 -5 -29 1 -50 5 -22 8 -85 7 -140 -1 -66 3 -108 12 -124 11 -22
13 -23 22 -7 6 10 12 68 15 129 5 117 13 158 13 69 0 -65 15 -68 23 -5 7 55 6
364 -1 447 -4 46 -8 56 -23 56 -28 0 -27 60 1 67 22 6 36 58 26 98 -8 30 -26
33 -33 5z"/>
<path d="M12383 1193 c-44 -2 -73 -8 -75 -16 -6 -17 14 -337 21 -336 3 0 69
33 146 72 l140 72 -1 65 c-3 135 -1 129 -36 134 -61 10 -123 12 -195 9z"/>
<path d="M5083 1050 c-15 -17 -25 -19 -65 -14 -30 4 -48 3 -48 -4 0 -8 -50
-32 -66 -32 -1 0 -7 14 -13 30 -5 17 -15 30 -20 30 -13 0 -14 -72 -2 -120 5
-19 12 -48 15 -63 6 -25 23 -36 133 -88 69 -33 137 -62 151 -66 l24 -6 -5 84
c-5 85 -22 159 -54 230 -19 44 -26 47 -50 19z"/>
<path d="M8077 999 l-42 -17 -3 -123 c-1 -68 2 -234 8 -369 6 -135 11 -254 11
-264 0 -42 -18 -46 -212 -50 -101 -2 -247 -11 -324 -20 -77 -9 -180 -20 -230
-24 -49 -5 -83 -11 -75 -14 27 -10 481 -68 615 -78 72 -6 184 -15 250 -20 66
-5 170 -11 230 -12 l110 -3 3 87 c4 126 2 128 -113 128 -95 0 -133 16 -53 22
46 3 64 26 28 35 l-22 6 23 13 c13 7 32 13 42 14 14 0 15 -3 6 -19 -26 -40 22
-71 52 -34 17 20 24 380 12 603 l-8 145 -133 5 c-109 4 -142 2 -175 -11z m-60
-896 c-3 -10 -5 -4 -5 12 0 17 2 24 5 18 2 -7 2 -21 0 -30z"/>
<path d="M9397 993 c-3 -15 -4 -163 -4 -328 l2 -300 45 3 c25 2 47 6 49 8 11
11 22 314 16 462 l-7 172 -33 0 c-18 0 -40 3 -48 6 -10 3 -16 -4 -20 -23z"/>
<path d="M9340 371 c0 -6 5 -13 10 -16 6 -3 10 1 10 9 0 9 -4 16 -10 16 -5 0
-10 -4 -10 -9z"/>
<path d="M10585 314 c-16 -2 -79 -11 -140 -19 -60 -9 -171 -20 -245 -25 -173
-12 -249 -23 -279 -39 l-24 -13 28 -22 c24 -19 27 -28 22 -55 -6 -31 -5 -32
21 -29 25 3 27 7 30 54 2 41 7 53 22 57 26 7 30 0 20 -33 -9 -30 -3 -70 10
-70 9 0 235 46 273 55 21 6 25 10 17 20 -8 10 -8 15 0 20 6 4 9 13 6 20 -13
34 70 46 121 18 18 -10 33 -22 33 -26 0 -5 6 -5 13 0 6 6 39 11 72 11 54 1
217 40 233 57 21 21 -115 32 -233 19z"/>
<path d="M9295 214 c-48 -24 -55 -25 -170 -19 -203 10 -315 4 -284 -16 8 -4
14 -19 15 -31 0 -13 1 -49 2 -80 2 -57 3 -58 31 -58 25 0 28 3 23 25 -8 42 8
135 23 135 10 0 16 -23 21 -80 l7 -80 33 0 c31 0 34 3 34 30 0 17 5 30 10 30
6 0 10 -6 10 -14 0 -37 23 -40 233 -27 111 7 210 15 220 17 14 5 17 18 17 83
0 51 -4 82 -12 89 -7 5 -34 13 -60 17 -46 7 -48 6 -59 -21 l-11 -29 -10 28
c-5 15 -13 27 -16 27 -4 0 -29 -12 -57 -26z m95 -99 c0 -24 -4 -47 -10 -50 -6
-4 -10 15 -10 50 0 35 4 54 10 50 6 -3 10 -26 10 -50z m-280 29 c0 -17 -22
-14 -28 4 -2 7 3 12 12 12 9 0 16 -7 16 -16z"/>
<path d="M8437 175 c-4 -8 -2 -17 3 -20 10 -6 50 16 50 27 0 14 -48 8 -53 -7z"/>
<path d="M8507 176 c-4 -10 2 -16 21 -18 33 -4 42 -34 13 -43 -12 -3 -21 -13
-21 -20 0 -23 -21 -28 -35 -9 -8 11 -15 14 -15 8 0 -19 31 -50 36 -36 3 6 14
12 24 12 10 0 22 5 25 10 3 6 11 10 17 10 6 0 1 -11 -12 -25 -29 -31 -21 -41
21 -26 38 13 46 9 24 -12 -24 -24 -19 -27 45 -27 69 0 71 4 46 97 -8 29 -12
62 -9 73 9 33 -26 24 -38 -9 -12 -33 -37 -47 -53 -31 -7 7 -2 18 19 35 l30 24
-66 1 c-49 0 -68 -4 -72 -14z"/>
</g>
</svg>
